<?xml version="1.0" encoding="UTF-8"?><svg version="1.1" id="page_not_found" xmlns="http://www.w3.org/2000/svg" xmlns:xlink="http://www.w3.org/1999/xlink" x="0px" y="0px" viewBox="0 0 800 821.8" style="enable-background:new 0 0 800 821.8;" xml:space="preserve" width="800px" height="822px">

<path d="M529.8,739c-33.1,6.5-56.3,29.9-51.9,52.3c4.4,22.4,34.8,35.3,67.9,28.8s56.3-29.9,51.9-52.3
	C593.3,745.4,562.9,732.5,529.8,739z M517.7,769.8c-2.5,0-4.5-2-4.5-4.5s2-4.5,4.5-4.5s4.5,2,4.5,4.5l0,0
	C522.2,767.8,520.2,769.8,517.7,769.8L517.7,769.8L517.7,769.8z M539.9,800.2c-4.5,0-8.1-3.6-8.1-8.1s3.6-8.1,8.1-8.1
	s8.1,3.6,8.1,8.1l0,0C548,796.5,544.4,800.2,539.9,800.2L539.9,800.2z" style="fill:#04294F;"/>
<path d="M18.1,310.7c14.9,6.1,34.3-6.9,43.3-29c0.9-2.3,1.7-4.6,2.4-7c-18.2-5.9-34.7-16-48.2-29.6
	c-3.4,4.4-6.2,9.3-8.3,14.5C-1.7,281.7,3.1,304.6,18.1,310.7z" style="fill:#04294F;"/>
<path d="M773.5,408c-15.2-27.4-17.2-60.2-5.5-89.3c8-20.1,13.2-41.2,15.3-62.7C798.1,108,670.9-16.7,523.2,1.1
	C483.7,5.9,446.1,20.7,414,44.2c-23.8,17.3-55.4,19-80.9,4.4c-55.8-31.7-124.6-29.4-178.1,6c11.9,6.1,22.8,14.2,32,24
	c1,1.1,2.5,1.7,4,1.5l3.9-0.4c0.9-0.1,1.8,0.3,2.4,1c2.7,3.3,5.3,6.7,7.7,10.3c0.6,0.8,0.6,1.9,0.1,2.8l-1.3,2.4
	c-0.8,1.5-0.8,3.3,0,4.7c33.2,57.1,13.8,130.3-43.3,163.4c-4.7,2.8-9.7,5.2-14.7,7.2c-0.9,0.4-1.4,1.2-1.4,2.2l0.1,3.4
	c0,1-0.6,1.9-1.5,2.2c-7.6,2.7-15.5,4.7-23.6,6c-0.9,0.1-1.9-0.3-2.3-1.2l-1.7-3.2c-0.4-0.8-1.3-1.2-2.2-1.1c-9,1-18.1,0.9-27.1-0.2
	c-2.6,16.2-9.2,31.4-19.2,44.4C19,385.7-4.6,467.1,10.4,553.9C31.1,673.2,125,767.1,244.3,787.7c78.4,13.5,152.3-4.4,211.3-43.2
	c32-21.1,70.5-30.2,108.6-25.6c11.6,1.4,23.2,1.8,34.8,1.3c108.4-4.7,195.9-92,200.7-200.4C801.6,480.8,792.5,442.1,773.5,408z
	 M745.6,497.2c2.5,0,4.5,2,4.5,4.5s-2,4.5-4.5,4.5s-4.5-2-4.5-4.5l0,0C741.1,499.2,743.1,497.2,745.6,497.2z M678.9,605.9
	c4.5,0,8.1,3.6,8.1,8.1s-3.6,8.1-8.1,8.1s-8.1-3.6-8.1-8.1l0,0C670.8,609.6,674.4,605.9,678.9,605.9z M662.5,639.1
	c2.5,0,4.5,2,4.5,4.5s-2,4.5-4.5,4.5s-4.5-2-4.5-4.5l0,0C658,641.1,660,639.1,662.5,639.1L662.5,639.1z M642.4,118.3
	c4.5,0,8.1,3.6,8.1,8.1c0,4.5-3.6,8.1-8.1,8.1s-8.1-3.6-8.1-8.1C634.2,121.9,637.9,118.3,642.4,118.3
	C642.3,118.3,642.4,118.3,642.4,118.3z M629.8,568.3c2.5,0,4.5,2,4.5,4.5s-2,4.5-4.5,4.5s-4.5-2-4.5-4.5l0,0
	C625.3,570.3,627.3,568.3,629.8,568.3z M591.9,50.8c2.5,0,4.5,2,4.5,4.5s-2,4.5-4.5,4.5s-4.5-2-4.5-4.5l0,0
	C587.4,52.8,589.4,50.8,591.9,50.8L591.9,50.8L591.9,50.8z M445.7,634.7c2.5,0,4.5,2,4.5,4.5s-2,4.5-4.5,4.5s-4.5-2-4.5-4.5l0,0
	C441.2,636.7,443.2,634.7,445.7,634.7z M433.1,110.2c4.5,0,8.1,3.6,8.1,8.1s-3.6,8.1-8.1,8.1s-8.1-3.6-8.1-8.1l0,0
	C425,113.8,428.6,110.2,433.1,110.2L433.1,110.2L433.1,110.2z M401.7,150.2c2.5,0,4.5,2,4.5,4.5s-2,4.5-4.5,4.5s-4.5-2-4.5-4.5l0,0
	C397.2,152.2,399.2,150.2,401.7,150.2L401.7,150.2L401.7,150.2z M264.1,50.8c2.5,0,4.5,2,4.5,4.5s-2,4.5-4.5,4.5s-4.5-2-4.5-4.5l0,0
	C259.6,52.8,261.6,50.8,264.1,50.8L264.1,50.8z M245.9,206.2c4.5,0,8.1,3.6,8.1,8.1s-3.6,8.1-8.1,8.1s-8.1-3.6-8.1-8.1l0,0
	C237.8,209.8,241.4,206.2,245.9,206.2z M170.8,668c4.5,0,8.1,3.6,8.1,8.1s-3.6,8.1-8.1,8.1s-8.1-3.6-8.1-8.1l0,0
	C162.7,671.6,166.3,667.9,170.8,668C170.8,667.9,170.8,667.9,170.8,668L170.8,668L170.8,668z M143.5,648.1c2.5,0,4.5,2,4.5,4.5
	s-2,4.5-4.5,4.5s-4.5-2-4.5-4.5l0,0C139,650.1,141,648.1,143.5,648.1L143.5,648.1L143.5,648.1z M101.7,435.3c2.5,0,4.5,2,4.5,4.5
	s-2,4.5-4.5,4.5s-4.5-2-4.5-4.5l0,0C97.2,437.3,99.2,435.3,101.7,435.3z M54.9,561.8c2.5,0,4.5,2,4.5,4.5s-2,4.5-4.5,4.5
	s-4.5-2-4.5-4.5l0,0C50.5,563.8,52.5,561.8,54.9,561.8z" style="fill:#04294F;"/>
<path d="M84.1,238.9c-3.6-13.9-5.4-28.2-5.4-42.6v0.1c0,14.4,1.8,28.7,5.4,42.7c2.1,8.2,3.2,16.6,3.2,25
	C87.3,255.6,86.2,247.2,84.1,238.9z" style="fill:#04294F;"/>
<path d="M113.1,279.8c0.9-0.1,1.8,0.4,2.2,1.1l1.7,3.2c0.5,0.8,1.4,1.3,2.3,1.2c8-1.2,15.9-3.2,23.6-6
	c0.9-0.3,1.5-1.2,1.5-2.2l-0.1-3.4c0-0.9,0.5-1.8,1.4-2.2c61.1-25,90.3-94.9,65.3-156c-2.1-5.1-4.5-10-7.2-14.7
	c-0.8-1.5-0.8-3.3,0-4.7l1.3-2.4c0.5-0.9,0.4-2-0.1-2.8c-2.4-3.6-5-7-7.7-10.3c-0.6-0.7-1.5-1.1-2.4-1L191,80c-1.5,0.1-3-0.4-4-1.5
	c-9.3-9.7-20.1-17.8-32-24l-0.1-0.1C107.2,86,78.7,139.3,78.7,196.3v0.1c0,14.4,1.8,28.7,5.4,42.6c2.1,8.2,3.2,16.7,3.1,25.1
	c0,5.2-0.4,10.4-1.3,15.5l0,0C94.9,280.7,104,280.7,113.1,279.8L113.1,279.8z" style="fill:#F04E23;"/>
<ellipse cx="401.6" cy="154.6" rx="4.5" ry="4.5" style="fill:#FFB400;"/>
<ellipse cx="264" cy="55.2" rx="4.5" ry="4.5" style="fill:#FFB400;"/>
<ellipse cx="591.8" cy="55.2" rx="4.5" ry="4.5" style="fill:#FFB400;"/>
<circle cx="662.4" cy="643.5" r="4.5" style="fill:#FFB400;"/>
<circle cx="517.7" cy="765.4" r="4.5" style="fill:#FFB400;"/>
<circle cx="508.7" cy="536" r="4.5" style="fill:#FFB400;"/>
<circle cx="745.5" cy="501.5" r="4.5" style="fill:#FFB400;"/>
<circle cx="445.6" cy="639.1" r="4.5" style="fill:#FFB400;"/>
<ellipse cx="143.4" cy="652.4" rx="4.5" ry="4.5" style="fill:#FFB400;"/>
<ellipse cx="316.8" cy="568.2" rx="4.5" ry="4.5" style="fill:#FFB400;"/>
<circle cx="629.7" cy="572.7" r="4.5" style="fill:#FFB400;"/>
<circle cx="539.9" cy="336" r="4.5" style="fill:#FFB400;"/>
<circle cx="582.8" cy="302.4" r="4.5" style="fill:#FFB400;"/>
<ellipse cx="54.9" cy="566.2" rx="4.5" ry="4.5" style="fill:#FFB400;"/>
<ellipse cx="307.8" cy="376.8" rx="4.5" ry="4.5" style="fill:#FFB400;"/>
<ellipse cx="101.6" cy="439.6" rx="4.5" ry="4.5" style="fill:#FFB400;"/>
<ellipse cx="715.8" cy="297.9" rx="4.5" ry="4.5" style="fill:#FFB400;"/>
<circle cx="433.1" cy="118.2" r="8.1" style="fill:#FFB400;"/>
<circle cx="548" cy="285.3" r="8.1" style="fill:#FFB400;"/>
<circle cx="678.8" cy="613.9" r="8.1" style="fill:#FFB400;"/>
<circle cx="539.9" cy="792.1" r="8.1" style="fill:#FFB400;"/>
<circle cx="642.3" cy="126.3" r="8.1" style="fill:#FFB400;"/>
<circle cx="170.7" cy="675.9" r="8.1" style="fill:#FFB400;"/>
<circle cx="245.8" cy="626.5" r="8.1" style="fill:#FFB400;"/>
<circle cx="489.8" cy="514.1" r="8.1" style="fill:#FFB400;"/>
<circle cx="245.8" cy="214.2" r="8.1" style="fill:#FFB400;"/>
<ellipse cx="643.8" cy="786.7" rx="24.2" ry="24.2" style="fill:#04294F;"/>
<circle cx="18.4" cy="167.7" r="18.4" style="fill:#F04E23;"/>
<ellipse transform="matrix(0.2298 -0.9732 0.9732 0.2298 268.6663 381.9138)" cx="375.6" cy="21.2" rx="16.3" ry="16.3" style="fill:#04294F;"/>
<path d="M141.5,275.2c-1.9,0.2-3.9,0.4-5.8,0.8c-1.9,0.4-3.8,0.8-5.6,1.3s-3.7,1-5.6,1.6c-1.8,0.6-3.7,1.2-5.4,2
	c-0.5,0.1-0.7,0.6-0.6,1c0.1,0.5,0.6,0.7,1,0.6c1.9-0.2,3.9-0.4,5.8-0.8c1.9-0.3,3.8-0.8,5.6-1.2s3.7-1,5.6-1.6
	c1.9-0.6,3.7-1.3,5.5-2c0.5-0.1,0.7-0.6,0.6-1C142.5,275.3,142,275,141.5,275.2L141.5,275.2z" style="fill:#04294F;"/>
<path d="M194.9,86.3c0.5,1,1,1.9,1.6,2.8s1.2,1.8,1.9,2.6c0.7,0.9,1.5,1.6,2.3,2.3c0.4,0.3,0.9,0.3,1.2-0.1
	c0.2-0.2,0.2-0.5,0.2-0.8c-0.3-1-0.7-2.1-1.2-3c-0.5-1-1-1.9-1.6-2.8s-1.2-1.8-1.9-2.6c-0.7-0.9-1.5-1.6-2.3-2.3
	c-0.2-0.2-0.5-0.2-0.8-0.2c-0.5,0.1-0.7,0.6-0.6,1.1l0,0C194,84.3,194.4,85.3,194.9,86.3z" style="fill:#04294F;"/>
<ellipse transform="matrix(7.460101e-02 -0.9972 0.9972 7.460101e-02 32.3494 317.1042)" cx="187" cy="141.1" rx="11.4" ry="6.1" style="fill:#04294F;"/>
<ellipse transform="matrix(0.9926 -0.1217 0.1217 0.9926 -20.2684 14.5658)" cx="109.1" cy="173.2" rx="5.9" ry="9.5" style="fill:#04294F;"/>
<ellipse transform="matrix(0.3122 -0.95 0.95 0.3122 -38.0108 312.7311)" cx="197" cy="182.6" rx="6.3" ry="3.4" style="fill:#04294F;"/>
<ellipse transform="matrix(0.9627 -0.2706 0.2706 0.9627 -59.9137 40.8529)" cx="118.2" cy="237.7" rx="6.3" ry="3.4" style="fill:#04294F;"/>
<path d="M150.7,104.4c1.2-0.7,1.2-3.2-0.2-5.5c-1.3-2.3-3.4-3.6-4.7-2.9s-1.2,3.2,0.2,5.5S149.5,105.1,150.7,104.4z" style="fill:#04294F;"/>
<path d="M180.5,126.3c0.7,0.5,1.5,0.9,2.3,1.2c0.8,0.3,1.6,0.5,2.5,0.6s1.7,0,2.6-0.2c0.2-0.1,0.4-0.2,0.5-0.4
	c0.2-0.4,0.1-1-0.3-1.2H188c-1.3-0.7-2.6-1.3-4-1.8s-2.7-0.9-4.1-1.3h-0.2c-0.2-0.1-0.4,0-0.6,0.1c-0.4,0.2-0.6,0.8-0.4,1.2
	C179.1,125.2,179.7,125.8,180.5,126.3z" style="fill:#04294F;"/>
<path d="M178.3,158.3L178.3,158.3c1.5-0.1,3-0.4,4.4-0.8c1.4-0.4,2.7-0.8,4.1-1.3h0.1c0.5-0.2,0.7-0.7,0.5-1.1
	c-0.1-0.2-0.2-0.4-0.4-0.5c-0.8-0.4-1.7-0.6-2.6-0.6c-0.8,0-1.7,0.1-2.5,0.3s-1.6,0.5-2.3,0.9c-0.8,0.4-1.5,0.9-2,1.6
	c-0.3,0.4-0.3,0.9,0.1,1.3C177.9,158.3,178.1,158.3,178.3,158.3L178.3,158.3z" style="fill:#04294F;"/>
<ellipse transform="matrix(0.7646 -0.6445 0.6445 0.7646 -122.2654 158.0908)" cx="155.3" cy="246.4" rx="9.5" ry="5.1" style="fill:#04294F;"/>
<path d="M160.7,236c0.3,0.6,0.7,1.2,1.1,1.8c0.5,0.6,1.1,1.1,1.7,1.4c0.2,0.1,0.4,0.1,0.6,0.1c0.5-0.1,0.8-0.5,0.8-1
	l0,0v-0.1c-0.2-1.2-0.6-2.4-1.1-3.5c-0.2-0.5-0.5-1.1-0.8-1.6s-0.6-1-0.9-1.5l-0.1-0.2c-0.1-0.1-0.2-0.2-0.4-0.3
	c-0.5-0.2-1,0.1-1.1,0.5c-0.3,0.7-0.3,1.6-0.2,2.3C160.2,234.6,160.4,235.3,160.7,236z" style="fill:#04294F;"/>
<path d="M146.2,252.3c-0.5-0.5-1-1-1.6-1.4s-1.3-0.6-1.9-0.8c-0.7-0.2-1.5-0.3-2.2-0.2c-0.5,0.1-0.8,0.5-0.8,1
	c0,0.2,0.1,0.4,0.2,0.5l0.1,0.1c0.9,0.9,1.9,1.6,2.9,2.2c0.5,0.3,1,0.6,1.6,0.8c0.5,0.3,1.1,0.5,1.6,0.7l0.2,0.1c0.2,0,0.3,0,0.5,0
	c0.5-0.1,0.8-0.6,0.7-1.1l0,0C147.2,253.5,146.8,252.8,146.2,252.3z" style="fill:#04294F;"/>
<path d="M64.7,249.2c-2.1-8.7-6.9-15.5-14.1-18.5c-11.3-4.6-25.1,1.6-35,14.5c13.5,13.6,30,23.7,48.2,29.5
	c1.3-4.7,2-9.5,2.1-14.3C66.5,255.5,64.7,249.2,64.7,249.2z" style="fill:#F04E23;"/>
<path d="M52.9,254.1c-0.2,3.3,3.8,6.2,9,6.6c1.3,0.1,2.7,0,4-0.2c0.4-3.8,0-7.7-1.2-11.3c-0.6-0.1-1.3-0.2-1.9-0.3
	C57.6,248.5,53.2,250.8,52.9,254.1z" style="fill:#04294F;"/>
</svg>