<?xml version="1.0" encoding="UTF-8"?><svg xmlns="http://www.w3.org/2000/svg" viewBox="0 0 89.122 113.927" x="0px" y="0px" width="90px" height="114px" version="1.1" xmlns:xlink="http://www.w3.org/1999/xlink"><title>comet</title><g id="Layer_2" data-name="Layer 2"><g id="comet"><path d="M79.247,22.727a1.107,1.107,0,0,0-1.4-.4,224.578,224.578,0,0,0-21.3,14.8c-3.8,2.9-7.5,6-11.1,9.1.8-3.3,1.6-6.8,2.3-10.3h0a1.037,1.037,0,0,0-.8-1.2,1.7,1.7,0,0,0-.7.1,85.863,85.863,0,0,0-15.9,11.5,111.03,111.03,0,0,0-13.2,14.2,97.192,97.192,0,0,0-10.5,16.4,74.654,74.654,0,0,0-3.9,9.2,39.736,39.736,0,0,0-1.5,4.9c-.4,1.6-.8,3.3-1.1,5-.7,4.6,1.2,10.2,3.7,12.9a16.958,16.958,0,0,0,12,5,43.273,43.273,0,0,0,17.6-4.5,59.874,59.874,0,0,0,13.8-9.6,68.986,68.986,0,0,0,10.5-12.4,52.784,52.784,0,0,0,7-14.8v-.5a1,1,0,0,0-1.3-.8h0c-4,.9-7.6,1.9-11.2,2.8l3.3-5.1c4.5-7.1,8.8-14.4,12.8-21.9a220.243,220.243,0,0,0,11-23.6A1.949,1.949,0,0,0,79.247,22.727Z" fill="#00aee0"/><path d="M84.047,36.927a4.3,4.3,0,0,1,0-1.6,2.384,2.384,0,0,1,.6-1.1,3.915,3.915,0,0,1,1-.8,4.013,4.013,0,0,1,1.5-.3,2.019,2.019,0,0,1,1.9,1.6,4.3,4.3,0,0,1,0,1.6,2.384,2.384,0,0,1-.6,1.1,3.915,3.915,0,0,1-1,.8,2.7,2.7,0,0,1-1.5.3A1.918,1.918,0,0,1,84.047,36.927Z" fill="#00aee0"/><path d="M41.147,26.327a4.3,4.3,0,0,1,0-1.6,2.384,2.384,0,0,1,.6-1.1,3.915,3.915,0,0,1,1-.8,4.013,4.013,0,0,1,1.5-.3,2.019,2.019,0,0,1,1.9,1.6,4.3,4.3,0,0,1,0,1.6,2.384,2.384,0,0,1-.6,1.1,3.915,3.915,0,0,1-1,.8,4.013,4.013,0,0,1-1.5.3A2.019,2.019,0,0,1,41.147,26.327Z" fill="#00aee0"/><path d="M80.147,3.827a4.3,4.3,0,0,1,0-1.6,2.384,2.384,0,0,1,.6-1.1,3.915,3.915,0,0,1,1-.8,2.7,2.7,0,0,1,1.5-.3,2.019,2.019,0,0,1,1.9,1.6,4.3,4.3,0,0,1,0,1.6,2.384,2.384,0,0,1-.6,1.1,3.915,3.915,0,0,1-1,.8,2.7,2.7,0,0,1-1.5.3A2.134,2.134,0,0,1,80.147,3.827Z" fill="#00aee0"/><path d="M72.147,62.027a9.612,9.612,0,0,1,1.1-2.8,13.941,13.941,0,0,1,3.6-4.4,9.632,9.632,0,0,1,2.5-1.6,1.431,1.431,0,0,1,1.9.8h0a2.2,2.2,0,0,1,.1.8,9.612,9.612,0,0,1-1.1,2.8c-.5.8-1,1.6-1.6,2.4a18.883,18.883,0,0,1-2,2,9.632,9.632,0,0,1-2.5,1.6,1.356,1.356,0,0,1-1.8-.7h0A.8.8,0,0,1,72.147,62.027Z" fill="#00aee0"/><path d="M54.547,24.227a22.133,22.133,0,0,1,1.6-3.5,29.133,29.133,0,0,1,4.7-5.8,17.8,17.8,0,0,1,3.1-2.3,1.286,1.286,0,0,1,1.8.5h0a1.183,1.183,0,0,1,.1,1,22.133,22.133,0,0,1-1.6,3.5,21.838,21.838,0,0,1-2.2,3.1,22.256,22.256,0,0,1-2.6,2.7,17.8,17.8,0,0,1-3.1,2.3,1.286,1.286,0,0,1-1.8-.5A1.7,1.7,0,0,1,54.547,24.227Z" fill="#00aee0"/><path d="M29.947,55.627a6.154,6.154,0,0,1,.7-2.3,7.607,7.607,0,0,1,1.2-1.9,12.094,12.094,0,0,1,1.6-1.6,5.7,5.7,0,0,1,2.2-1.1,1.584,1.584,0,0,1,1.9,1h0a1.268,1.268,0,0,1,.1.6,6.154,6.154,0,0,1-.7,2.3,7.607,7.607,0,0,1-1.2,1.9,12.094,12.094,0,0,1-1.6,1.6,5.7,5.7,0,0,1-2.2,1.1,1.584,1.584,0,0,1-1.9-1A1.268,1.268,0,0,1,29.947,55.627Z" fill="#04294f"/><path d="M42.647,92.027a6.154,6.154,0,0,1,.7-2.3,10.578,10.578,0,0,1,2.8-3.5,5.7,5.7,0,0,1,2.2-1.1,1.538,1.538,0,0,1,1.9,1,1.268,1.268,0,0,1,.1.6,6.154,6.154,0,0,1-.7,2.3,7.607,7.607,0,0,1-1.2,1.9,12.094,12.094,0,0,1-1.6,1.6,5.7,5.7,0,0,1-2.2,1.1,1.584,1.584,0,0,1-1.9-1,1.268,1.268,0,0,1-.1-.6Z" fill="#04294f"/><path d="M28.847,72.227a17.524,17.524,0,0,1,2-3.5,37.622,37.622,0,0,1,2.5-3.1,23.671,23.671,0,0,1,2.8-2.7,15.231,15.231,0,0,1,3.4-2.2,1.317,1.317,0,0,1,1.8.6h0a1.079,1.079,0,0,1,0,1.1,17.524,17.524,0,0,1-2,3.5,29.261,29.261,0,0,1-5.3,5.8,15.231,15.231,0,0,1-3.4,2.2,1.317,1.317,0,0,1-1.8-.6h0A1.4,1.4,0,0,1,28.847,72.227Z" fill="#04294f"/><path d="M11.947,104.327s-3.4-5.5-4.3-8.7a1.417,1.417,0,0,1,.1-1.1l1.8-4.3a1.645,1.645,0,0,0,.1-1l-.4-2a1.721,1.721,0,0,1,.2-1.2c.7-1.2,2.6-4.1,5-5.4a1.421,1.421,0,0,1,.6-.2l4.5-.3c.2,0,.4-.1.6-.1l3.3-1.5a1.645,1.645,0,0,1,1-.1,17.341,17.341,0,0,1,12.8,10.8,1.7,1.7,0,0,1,0,1l-1.1,4.3a1.8,1.8,0,0,1-1.2,1.2h0a1.536,1.536,0,0,0-1.2,1.9v.1l.9,3.4a1.626,1.626,0,0,1-.9,1.9c-2.1.8-6.2,2.3-9.3,2.3a1.5,1.5,0,0,0-1.1.4l-2.9,2.3a1.971,1.971,0,0,1-1.5.3C17.147,107.627,13.447,106.227,11.947,104.327Z" fill="#04294f"/><path d="M13.347,97.727a4.3,4.3,0,0,1,0-1.6,2.384,2.384,0,0,1,.6-1.1,3.915,3.915,0,0,1,1-.8,2.7,2.7,0,0,1,1.5-.3,2.019,2.019,0,0,1,1.9,1.6,4.3,4.3,0,0,1,0,1.6,2.384,2.384,0,0,1-.6,1.1,3.25,3.25,0,0,1-2.5,1.1A2,2,0,0,1,13.347,97.727Z" fill="#00aee0"/><path d="M27.647,92.327a1.7,1.7,0,0,1,0-1,4.875,4.875,0,0,1,.3-.7,2.651,2.651,0,0,1,.6-.5,2.959,2.959,0,0,1,1-.2,1.482,1.482,0,0,1,1.3,1.1,1.7,1.7,0,0,1,0,1,4.875,4.875,0,0,1-.3.7,2.651,2.651,0,0,1-.6.5,2.959,2.959,0,0,1-1,.2A1.63,1.63,0,0,1,27.647,92.327Z" fill="#00aee0"/><path d="M49.747,59.527a4.3,4.3,0,0,1,0-1.6,2.384,2.384,0,0,1,.6-1.1,3.915,3.915,0,0,1,1-.8,2.7,2.7,0,0,1,1.5-.3,2.019,2.019,0,0,1,1.9,1.6,4.3,4.3,0,0,1,0,1.6,2.384,2.384,0,0,1-.6,1.1,3.915,3.915,0,0,1-1,.8,2.7,2.7,0,0,1-1.5.3A1.918,1.918,0,0,1,49.747,59.527Z" fill="#04294f"/></g></g></svg>