<?xml version="1.0" encoding="UTF-8"?><svg version="1.1" id="sign_up_form" xmlns="http://www.w3.org/2000/svg" xmlns:xlink="http://www.w3.org/1999/xlink" x="0px" y="0px" viewBox="0 0 800 583.1" enable-background="new 0 0 800 583.1" xml:space="preserve" width="800px" height="584px">
<path fill="#10294C" d="M210.323,468.9c-0.9-1.3-1.7-2.6-2.3-4.1c-0.6-1.4-1.2-2.8-1.6-4.3c-0.5-1.4-0.8-2.9-1.1-4.3
	c-0.3-1.5-0.5-3-0.6-4.5l0,0c-0.1-1.1,0.8-2.1,2-2.2c0.6,0,1.2,0.2,1.6,0.7c1.1,1.2,2,2.6,2.7,4.1c0.7,1.4,1.3,2.9,1.7,4.4
	c0.5,1.5,0.8,3,1,4.5c0.3,1.6,0.4,3.1,0.3,4.7l0,0c-0.1,1.1-1,1.9-2.1,1.9C211.223,469.7,210.723,469.4,210.323,468.9L210.323,468.9
	z"/>
<path fill="#10294C" d="M134.036,357.367c-0.9-1.3-1.7-2.6-2.3-4.1c-0.6-1.4-1.2-2.8-1.6-4.3c-0.5-1.4-0.8-2.9-1.1-4.3
	c-0.3-1.5-0.5-3-0.6-4.5l0,0c-0.1-1.1,0.8-2.1,2-2.2c0.6,0,1.2,0.2,1.6,0.7c1.1,1.2,2,2.6,2.7,4.1c0.7,1.4,1.3,2.9,1.7,4.4
	c0.5,1.5,0.8,3,1,4.5c0.3,1.6,0.4,3.1,0.3,4.7l0,0c-0.1,1.1-1,1.9-2.1,1.9C134.937,358.167,134.437,357.867,134.036,357.367
	L134.036,357.367z"/>
<path fill="#10294C" d="M260.023,521.9c-1.8-0.6-3.6-1.4-5.3-2.1c-1.8-0.7-3.5-1.5-5.3-2.3s-3.5-1.7-5.2-2.6c-1.7-0.9-3.4-2-5.1-3
	c-0.8-0.5-1.6-1.1-2.4-1.7s-1.6-1.1-2.4-1.8c-1.6-1.2-3.1-2.5-4.5-3.9c-2.9-2.7-5.4-5.9-7.5-9.3c-0.5-0.9-0.2-2.2,0.7-2.7
	c0.7-0.4,1.7-0.3,2.3,0.3l0,0c2.7,2.5,5.5,5,8.4,7.2c1.5,1.1,2.9,2.3,4.4,3.3s3,2.1,4.6,3.1c3.1,2.1,6.3,4,9.5,5.9
	c1.6,1,3.3,2,4.9,3c1.6,1,3.3,2.1,4.8,3.3c0.8,0.6,1,1.8,0.4,2.7C261.723,521.8,260.923,522.1,260.023,521.9L260.023,521.9z"/>
<path fill="#10294C" d="M423.723,581.2c-6.2,1.6-12.6,2.2-19,1.8c-3.2-0.2-6.3-0.6-9.5-1.1c-3.1-0.6-6.2-1.3-9.2-2l-8.9-2.4
	c-1.5-0.4-2.9-0.7-4.3-1.1c-1.3-0.3-2.7-0.5-4.1-0.6c-0.7,0-1.3,0-2,0s-1.4,0.1-2.2,0.2c-1.5,0.1-2.9,0.3-4.4,0.5
	c-3,0.4-6,1-9.1,1.4c-1.1,0.1-2.1-0.6-2.2-1.7c-0.1-0.9,0.4-1.8,1.3-2.1c2.9-1,5.9-1.9,9-2.7c1.5-0.4,3.1-0.7,4.7-1
	c0.8-0.1,1.6-0.3,2.4-0.4c0.9-0.1,1.7-0.2,2.6-0.2c1.7,0,3.4,0.2,5.1,0.5c1.6,0.3,3.2,0.6,4.7,1c3.1,0.7,6,1.5,9,2.3
	s5.9,1.5,8.8,2.1s5.9,1.1,8.8,1.5c5.9,0.8,11.9,0.9,17.8,0.4l0,0c1-0.1,2,0.7,2,1.7C425.223,580.1,424.623,580.9,423.723,581.2
	L423.723,581.2z"/>
<path fill="#10294C" d="M554.423,549.9c-2.2,2.1-4.5,4-7,5.7c-2.5,1.8-5.1,3.3-7.9,4.7c-2.8,1.4-5.7,2.5-8.7,3.3s-6.1,1.3-9.2,1.3
	c-1.1,0-2-0.9-2-2c0-0.8,0.5-1.5,1.3-1.8l0,0c2.7-1,5.4-1.9,8-3s5.2-2.2,7.7-3.5s5.1-2.5,7.7-3.9s5.2-2.7,8-3.8c1-0.4,2.1,0,2.5,1
	l0,0C555.123,548.5,555.023,549.3,554.423,549.9z"/>
<path fill="#10294C" d="M671.623,481.2c0.1,0.7,0,1.4-0.2,2.1c-0.2,0.6-0.5,1.1-0.8,1.6c-0.4,0.5-0.8,0.9-1.3,1.3
	c-0.6,0.4-1.2,0.7-1.9,0.8c-1.4,0.3-2.8-0.7-3.1-2.1l0,0v-0.2v-0.1c-0.1-0.7,0-1.4,0.2-2s0.5-1.1,0.8-1.6c0.4-0.5,0.8-0.9,1.3-1.2
	c0.6-0.4,1.2-0.7,1.9-0.8h0.1c1.4-0.3,2.7,0.6,3,2l0,0V481.2z"/>
<path fill="#10294C" d="M676.523,418.7c1.9,3.2,3.6,6.5,5,9.9c1.5,3.5,2.5,7.2,3.1,11c0.3,1.9,0.4,3.9,0.4,5.8c0,1-0.1,2-0.1,2.9
	c-0.1,1-0.2,1.9-0.4,2.8c-0.6,3.8-1.7,7.4-3.3,10.9c-0.5,1-1.7,1.4-2.6,0.9c-0.8-0.4-1.2-1.2-1.1-2.1l0,0c0.5-3.5,0.9-6.9,1.1-10.4
	l0.1-2.6c0-0.8,0-1.6,0-2.5c-0.1-1.7-0.2-3.3-0.5-5c-0.5-3.4-1.3-6.7-2.2-10c-0.9-3.4-2-6.8-2.9-10.3c-0.3-1,0.4-2.1,1.4-2.3
	C675.323,417.7,676.123,418,676.523,418.7L676.523,418.7z"/>
<path fill="#10294C" d="M679.523,169.4c-1.2,4-2.5,8.1-3.9,12c-1.4,3.8-2.5,7.7-3.3,11.6c-0.4,1.9-0.6,3.8-0.6,5.7
	c0,0.4,0,0.8,0,1.2s0.1,0.8,0.2,1.3c0.2,0.9,0.4,1.8,0.7,2.7c1.2,3.7,2.8,7.6,4.3,11.4c1.6,3.8,3.1,7.9,4.4,12
	c1.3,4.1,2.3,8.4,2.9,12.7c0.6,4.4,0.7,8.8,0.2,13.2c-0.5,4.3-1.6,8.6-3.2,12.7c-0.4,1-1.5,1.5-2.5,1.2c-0.9-0.3-1.5-1.4-1.2-2.3
	l0,0c1-3.9,1.5-7.9,1.7-11.9c0.1-2,0-4-0.2-5.9c-0.1-2-0.4-4-0.8-5.9c-1.4-7.9-4.3-15.5-7.4-23.2c-1.5-3.9-3.2-7.8-4.4-12.1
	c-0.3-1.1-0.6-2.2-0.8-3.4c-0.1-0.6-0.2-1.2-0.2-1.8s0-1.3,0-1.9c0.1-2.3,0.4-4.5,1-6.8c1.1-4.2,2.5-8.3,4.3-12.2
	c1.7-3.9,3.3-7.6,5.1-11.4v-0.1c0.5-0.9,1.6-1.3,2.5-0.9C679.423,167.6,679.823,168.6,679.523,169.4L679.523,169.4z"/>
<path fill="#10294C" d="M655.823,83.6c1.1,1.7,2,3.6,2.8,5.4s1.6,3.7,2.3,5.3c0.6,1.5,1.6,3.2,2.5,4.9c1,1.8,1.8,3.6,2.6,5.5
	c0.4,1.1-0.2,2.2-1.2,2.6c-0.7,0.2-1.4,0.1-2-0.3c-1.6-1.3-3-2.8-4.3-4.5c-1.4-1.7-2.6-3.6-3.5-5.6c-0.8-2-1.4-4-1.9-6.1
	c-0.5-2-0.7-4.1-0.8-6.2c0-1.1,0.8-2,1.9-2C654.823,82.7,655.423,83,655.823,83.6L655.823,83.6z"/>
<path fill="#10294C" d="M476.223,20.2c5-0.6,9.9-2.1,15-3.6c2.5-0.8,5.1-1.4,7.7-2.1c2.6-0.7,5.3-1.2,8-1.7c2.8-0.4,5.6-0.7,8.4-0.7
	c2.8,0,5.7,0.3,8.5,0.8c5.5,1.1,10.7,3.1,15.5,6c0.9,0.6,1.3,1.8,0.7,2.7c-0.5,0.8-1.4,1.2-2.3,0.9l0,0c-4.8-1.7-9.8-2.9-14.8-3.6
	c-2.5-0.3-4.9-0.4-7.4-0.3s-5,0.3-7.5,0.7c-2.5,0.4-5,0.9-7.6,1.4c-2.5,0.5-5.1,1.1-7.7,1.6s-5.3,1-8,1.4c-2.8,0.4-5.6,0.5-8.4,0.2
	c-1-0.1-1.8-1-1.7-2.1C474.523,21,475.323,20.3,476.223,20.2L476.223,20.2z"/>
<path fill="#10294C" d="M351.123,0.1c1.5-0.2,3-0.2,4.5,0c1.4,0.1,2.9,0.3,4.3,0.6s2.8,0.6,4.1,1c1.4,0.4,2.8,0.9,4.1,1.5h0.1
	c1,0.5,1.5,1.7,1,2.8c-0.3,0.5-0.7,0.9-1.3,1.1c-1.5,0.4-3.1,0.6-4.7,0.5c-1.5,0-3.1-0.2-4.6-0.5s-2.9-0.7-4.3-1.3
	c-1.4-0.5-2.8-1.2-4.1-2.1c-0.9-0.6-1.2-1.9-0.5-2.8C350.023,0.5,350.523,0.2,351.123,0.1z"/>
<path fill="#10294C" d="M254.823,58.9c2.7-1.8,5.5-3.4,8-5.1c1.2-0.8,2.4-1.7,3.5-2.7c0.2-0.2,0.5-0.4,0.7-0.7l0.3-0.4l0.4-0.4
	c0.5-0.6,1-1.2,1.4-1.8c1.8-2.5,3.5-5.1,5.1-7.7c1.6-2.7,3.1-5.5,4.6-8.3s3.1-5.7,4.7-8.6c1.7-2.9,3.5-5.7,5.5-8.4s4.4-5.3,6.9-7.5
	c2.6-2.3,5.5-4.2,8.6-5.6c1-0.5,2.2,0,2.6,0.9s0.1,2-0.7,2.5l0,0c-5,3.5-9.3,7.9-12.5,13.1c-1.7,2.6-3.3,5.3-4.8,8s-3,5.6-4.5,8.5
	c-3.1,5.7-6.4,11.5-10.9,16.7c-0.6,0.6-1.1,1.3-1.7,1.9l-0.4,0.5c-0.1,0.2-0.4,0.4-0.5,0.5c-0.4,0.3-0.7,0.6-1.1,0.9
	c-1.4,1-2.9,2-4.4,2.8c-3,1.6-5.9,2.9-9,4.1c-1,0.4-2.1-0.1-2.5-1.1C253.723,60.3,254.023,59.3,254.823,58.9L254.823,58.9z"/>
<path fill="#10294C" d="M115.335,239.477c2.441-2.138,5.007-4.091,7.263-6.104c1.085-0.95,2.157-2,3.116-3.135
	c0.172-0.224,0.443-0.462,0.602-0.786l0.245-0.436l0.344-0.449c0.417-0.66,0.834-1.321,1.152-1.968
	c1.457-2.714,2.802-5.515,4.047-8.302c1.233-2.886,2.353-5.859,3.473-8.831c1.12-2.972,2.327-6.057,3.533-9.142
	c1.305-3.098,2.723-6.109,4.352-9.048s3.668-5.831,5.858-8.339c2.276-2.621,4.902-4.884,7.792-6.678
	c0.926-0.627,2.181-0.288,2.695,0.552s0.361,1.97-0.366,2.57l0,0c-4.498,4.125-8.185,9.05-10.676,14.625
	c-1.345,2.8-2.577,5.687-3.711,8.56c-1.133,2.873-2.241,5.945-3.348,9.016c-2.327,6.057-4.838,12.239-8.618,17.984
	c-0.516,0.673-0.92,1.433-1.436,2.106l-0.331,0.548c-0.073,0.211-0.344,0.449-0.43,0.561c-0.357,0.35-0.615,0.687-0.973,1.036
	c-1.257,1.175-2.613,2.363-3.995,3.352c-2.765,1.979-5.469,3.648-8.385,5.244c-0.939,0.528-2.095,0.176-2.623-0.763
	C114.428,241.009,114.595,239.978,115.335,239.477L115.335,239.477z"/>
<path fill="#10294C" d="M651.523,300.5c0-18.3,14.1-35,14.3-50.6c0.2-18.7-13.5-35.6-13.4-50.8c0.1-19.5,13.8-36.6,13-51.1
	c-1.2-20.7-17.3-33.5-22.6-46.3c-6.5-15.8-7.6-35.8-24.6-44.3c-12.1-6-32.1,2.6-51.5-1.9c-14-3.2-27.3-20.3-45.8-23.6
	c-14.7-2.6-33.1,8.9-51,5.9c-19.7-3.3-34.4-20.6-49.4-23.3c-20.7-3.7-39.1,7.7-53.5,6.9c-19.7-1.2-38.1-12.3-53.7-3.7
	c-12.6,6.9-16.9,29.1-31.9,45.3c-10.1,11-31.8,14.9-44.8,31.2c-9.8,12.3-9.8,35.2-21.9,51c-9.9,12.8-31.6,18-43.4,33.4
	c-9.1,11.9-9.9,31.9-18.7,46.7l0,0c-21.1,33.4-19.1,94.3-1.4,125.1l0,0c10.2,15,10.5,36.5,20.1,48.9c11.8,15.4,33.5,20.5,43.4,33.4
	c12.1,15.8,12.1,38.7,21.9,51c13,16.3,34.6,20.2,44.8,31.2c15,16.3,19.3,38.4,31.9,45.3c15.6,8.5,34-2.6,53.7-3.7
	c14.5-0.9,32.8,10.5,53.5,6.8c14.9-2.7,29.6-20,49.3-23.3c17.1-2.9,34.9,8.9,49,6.7c17.7-2.7,31.1-19.3,44.7-21.6
	c18.9-3.3,37.4,7.4,49.6,3.4c18.6-6.2,21.9-24.6,29.1-38.1c6-11.3,21.9-22.6,23.2-43.3c0.8-13.6-13-30-13.1-49.1
	c-0.1-14.4,13.6-30.7,13.4-48.8C665.623,334.2,651.523,318.1,651.523,300.5z"/>
<path fill="#00ACDC" d="M626.023,168.2h0.3c4.3-0.2,7.5-5,7.2-10.8s-4-10.2-8.3-10c-2.4,0.2-4.5,1.6-5.6,3.7
	c-1.2,2.2-1.8,4.6-1.6,7.1C618.423,163.9,621.823,168.2,626.023,168.2z M623.923,153.6c0.2-0.4,0.8-1.3,1.6-1.3h0.1
	c1.3,0,2.9,2.3,3.1,5.4c0.2,3.1-1.2,5.6-2.6,5.7c-1.3,0.1-3-2.3-3.2-5.4C622.823,156.4,623.223,154.9,623.923,153.6z"/>
<path fill="#F04E23" d="M446.823,42c-1.3-2-3.6-3.1-6-3.1c-4.3,0.2-7.5,5-7.2,10.8c0.3,5.7,3.8,10,8,10h0.3c4.3-0.2,7.5-5,7.2-10.8
	C449.123,46.4,448.323,44,446.823,42z M441.723,54.8c-1.3,0-3-2.3-3.2-5.4c-0.2-3.1,1.2-5.6,2.6-5.7h0.1c0.8,0,1.5,0.8,1.7,1.1
	c0.8,1.2,1.3,2.7,1.4,4.2C444.523,52.2,443.123,54.7,441.723,54.8L441.723,54.8z"/>
<path fill="#ffb400" d="M328.723,152.9c-4.3,0.2-7.5,5-7.2,10.8c0.3,5.7,3.8,10,8,10h0.3c2.4-0.2,4.5-1.6,5.6-3.7
	c1.2-2.2,1.8-4.6,1.6-7.1C336.723,157.1,333.123,152.7,328.723,152.9z M331.223,167.5c-0.2,0.4-0.9,1.3-1.6,1.3
	c-1.4,0-3-2.3-3.2-5.4c-0.2-3.1,1.2-5.6,2.6-5.7h0.1c1.3,0,2.9,2.3,3.1,5.4C332.323,164.7,332.023,166.2,331.223,167.5
	L331.223,167.5z"/>
<path fill="#00ACDC" d="M290.423,383.3c-2.4,0.2-4.5,1.6-5.6,3.7c-1.2,2.2-1.8,4.6-1.6,7.1c0.3,5.7,3.8,10,8,10h0.3
	c2.4-0.2,4.5-1.6,5.6-3.7c1.2-2.2,1.8-4.6,1.6-7.1C298.423,387.5,294.723,383.1,290.423,383.3z M292.923,397.9
	c-0.2,0.4-0.8,1.3-1.6,1.3c-1.3,0.1-3-2.3-3.2-5.4c-0.1-1.5,0.2-3,0.9-4.3c0.2-0.4,0.8-1.3,1.6-1.3h0.1c1.3,0,2.9,2.3,3.1,5.4
	C293.923,395.1,293.623,396.6,292.923,397.9z"/>
<path fill="#00ACDC" d="M334.423,509.8c-4.3,0.2-7.5,5-7.2,10.8c0.3,5.7,3.8,10,8,10h0.3c4.3-0.2,7.5-5,7.2-10.8
	S338.723,509.6,334.423,509.8z M335.223,525.7c-1.3,0.1-3-2.3-3.2-5.4s1.2-5.6,2.6-5.7h0.1c1.3,0,2.9,2.3,3.1,5.4
	S336.523,525.7,335.223,525.7L335.223,525.7z"/>
<path fill="#ffb400" d="M625.323,445.4c-2.4,0.2-4.5,1.6-5.6,3.7c-1.2,2.2-1.8,4.6-1.6,7.1c0.3,5.7,3.8,10,8,10h0.3
	c4.3-0.2,7.5-5,7.2-10.8S629.623,445.2,625.323,445.4z M626.123,461.3L626.123,461.3c-1.4,0-3-2.3-3.1-5.4c-0.1-1.5,0.2-3,0.9-4.3
	c0.2-0.4,0.8-1.3,1.6-1.3h0.1c1.3,0,2.9,2.3,3.1,5.4C628.823,458.7,627.423,461.3,626.123,461.3L626.123,461.3z"/>
<path fill="#F04E23" d="M571.323,242.2c-2.4,0.2-4.5,1.6-5.6,3.7c-1.2,2.2-1.8,4.6-1.6,7.1c0.3,5.7,3.8,10,8,10h0.3
	c4.3-0.2,7.5-5,7.2-10.8C579.323,246.4,575.623,241.9,571.323,242.2z M572.123,258.1c-1.3,0.1-3-2.3-3.2-5.4c-0.1-1.5,0.2-3,0.9-4.3
	c0.2-0.4,0.8-1.3,1.6-1.3h0.1c1.3,0,2.9,2.3,3.1,5.4C574.823,255.5,573.523,258,572.123,258.1L572.123,258.1z"/>
<path fill="#00ACDC" d="M649.223,237.1c-1.3-1-2.6-1.9-4-2.7c-0.9-0.5-1.9-1-2.9-1.5c0-1.3-0.1-2.5-0.2-3.8
	c-0.2-1.7-0.4-3.3-0.8-4.9c-0.1-0.5-0.5-0.9-1.1-1.1c-0.8-0.2-1.6,0.3-1.8,1l0,0c-0.4,1.6-0.7,3.3-0.8,4.9c0,0.6-0.1,1.1-0.1,1.7
	c-0.4-0.1-0.7-0.3-1.1-0.4c-1.5-0.6-3.1-1-4.7-1.3c-0.5-0.1-1,0.1-1.4,0.5c-0.5,0.6-0.4,1.5,0.2,2.1c1.3,1,2.6,1.9,4,2.7
	c0.9,0.5,1.9,1.1,2.9,1.5c0,1,0.1,2,0.2,3c0.1,1.6,0.4,3.3,0.8,4.9c0.2,0.8,1,1.3,1.9,1.1c0.5-0.1,1-0.6,1.1-1.1
	c0.4-1.6,0.7-3.2,0.8-4.9c0-0.3,0-0.6,0-0.9c0.4,0.1,0.7,0.3,1.1,0.4c1.5,0.6,3.1,1,4.7,1.3c0.5,0.1,1.1-0.1,1.4-0.5
	C650.023,238.5,649.923,237.6,649.223,237.1L649.223,237.1z"/>
<path fill="#ffb400" d="M608.923,308.1l10.6,4.9c1.2,0.6,2.7,0,3.2-1.2c0.3-0.6,0.3-1.2,0.1-1.8l-5.3-15.6c-0.4-1.3-1.8-2-3.1-1.5
	c-0.6,0.2-1.1,0.6-1.4,1.2l-5.3,10.6C607.123,306,607.623,307.4,608.923,308.1C608.823,308.1,608.923,308.1,608.923,308.1
	L608.923,308.1z"/>
<path fill="#00ACDC" d="M518.123,101c-0.4-1.3-1.8-2-3.1-1.5c-0.6,0.2-1.1,0.6-1.4,1.2l-5.3,10.6c-0.6,1.2-0.1,2.7,1.1,3.3l0,0
	l10.6,4.9c0.3,0.2,0.7,0.2,1,0.2c1.3,0,2.4-1.1,2.5-2.4c0-0.3,0-0.6-0.1-0.8L518.123,101z"/>
<path fill="#00ACDC" d="M287.623,119.8c1.3,0,2.5-1.1,2.5-2.4c0-0.3,0-0.6-0.1-0.8l-5.3-15.6c-0.4-1.3-1.8-2-3.1-1.5
	c-0.6,0.2-1.1,0.6-1.4,1.2l-5.3,10.6c-0.6,1.2-0.1,2.7,1.1,3.3l0,0l10.6,4.9C286.923,119.7,287.323,119.8,287.623,119.8z"/>
<path fill="#00ACDC" d="M225.523,381.7c-0.3-0.9-1.2-1.6-2.2-1.6c-1-0.1-1.9,0.5-2.3,1.3l-5.3,10.6c-0.6,1.2-0.1,2.7,1.1,3.3
	l10.6,4.9c1.2,0.6,2.7,0,3.2-1.2c0.3-0.6,0.3-1.2,0.1-1.8L225.523,381.7z"/>
<path fill="#ffb400" d="M391.023,449.8c1.3,0,2.5-1.1,2.5-2.4c0-0.3,0-0.6-0.1-0.8l-5.3-15.6c-0.4-1.3-1.8-2-3.1-1.5
	c-0.6,0.2-1.1,0.6-1.4,1.2l-5.3,10.6c-0.6,1.2-0.1,2.7,1.1,3.3c0,0,0,0,0.1,0l10.6,4.9C390.223,449.6,390.623,449.7,391.023,449.8z"/>
<path fill="#00ACDC" d="M414.923,499.3c-0.4-1.3-1.8-2-3.1-1.5c-0.6,0.2-1.1,0.6-1.4,1.2l-5.3,10.6c-0.3,0.6-0.3,1.3-0.1,1.9
	c0.2,0.6,0.7,1.1,1.3,1.4l10.6,4.9c0.9,0.4,1.9,0.3,2.7-0.4c0.7-0.7,1-1.7,0.7-2.6L414.923,499.3z"/>
<path fill="#00ACDC" d="M562.923,484.8c-0.4-1.3-1.8-2-3.1-1.5c-0.6,0.2-1.1,0.6-1.4,1.2l-5.3,10.6c-0.3,0.6-0.3,1.3-0.1,1.9
	s0.7,1.1,1.3,1.4l10.6,4.9c1.2,0.6,2.7,0,3.3-1.2c0.3-0.6,0.3-1.2,0.1-1.8L562.923,484.8z"/>
<path fill="#ffb400" d="M585.023,83.6c-0.9-0.5-1.9-1-2.9-1.5c0-1.3-0.1-2.5-0.2-3.8c-0.1-1.6-0.4-3.3-0.8-4.9
	c-0.2-0.8-1-1.3-1.8-1.1c-0.5,0.1-0.9,0.5-1.1,1.1c-0.4,1.6-0.7,3.2-0.8,4.9c0,0.6-0.1,1.1-0.1,1.7l-1.1-0.4c-1.5-0.6-3.1-1-4.7-1.3
	c-0.8-0.1-1.6,0.4-1.7,1.2c-0.1,0.5,0.1,1.1,0.5,1.4c1.3,1,2.6,1.9,4,2.7c0.9,0.6,1.9,1.1,2.9,1.5c0,1,0.1,2,0.2,3
	c0.1,1.6,0.4,3.3,0.8,4.9c0.2,0.8,1,1.3,1.8,1.1c0.5-0.1,1-0.6,1.1-1.1c0.4-1.6,0.7-3.2,0.8-4.9c0-0.3,0-0.6,0.1-0.9
	c0.4,0.1,0.7,0.3,1.1,0.4c1.5,0.6,3.1,1,4.7,1.3c0.5,0.1,1.1-0.1,1.4-0.5c0.5-0.6,0.4-1.6-0.2-2.1
	C587.823,85.3,586.523,84.4,585.023,83.6z"/>
<path fill="#F04E23" d="M347.923,60.2c-0.9-0.5-1.9-1-2.9-1.5c0-1.3-0.1-2.5-0.2-3.8c-0.1-1.6-0.4-3.3-0.8-4.9
	c-0.1-0.5-0.5-0.9-1-1.1c-0.8-0.2-1.6,0.3-1.8,1.1c-0.4,1.6-0.7,3.2-0.8,4.9c0,0.6-0.1,1.1-0.1,1.7l-1.1-0.4c-1.5-0.6-3.1-1-4.6-1.3
	c-0.8-0.1-1.6,0.4-1.7,1.2c-0.1,0.5,0.1,1.1,0.5,1.4c1.3,1,2.6,1.9,4,2.7c0.9,0.6,1.9,1.1,2.9,1.5c0,1,0.1,2,0.2,3
	c0.1,1.6,0.4,3.3,0.8,4.9c0.2,0.8,1,1.3,1.8,1.1c0.6-0.1,1-0.6,1.1-1.1c0.4-1.6,0.7-3.2,0.8-4.9c0-0.3,0-0.6,0-0.9l1.1,0.4
	c1.5,0.6,3.1,1,4.7,1.3c0.5,0.1,1.1-0.1,1.4-0.5c0.5-0.6,0.4-1.6-0.2-2.1l0,0C350.723,61.9,349.323,61,347.923,60.2z"/>
<path fill="#00ACDC" d="M249.623,209.8c-0.9-0.5-1.9-1.1-2.9-1.5c0-1.3-0.1-2.5-0.2-3.8c-0.2-1.7-0.4-3.3-0.8-4.9
	c-0.1-0.5-0.5-0.9-1.1-1.1c-0.8-0.2-1.6,0.3-1.8,1l0,0c-0.4,1.6-0.7,3.3-0.8,4.9c0,0.6-0.1,1.1-0.1,1.7l-1.1-0.4
	c-1.5-0.6-3.1-1-4.7-1.3c-0.8-0.1-1.5,0.4-1.7,1.2c-0.1,0.5,0.1,1,0.5,1.3c1.3,1,2.6,1.9,4,2.7c0.9,0.6,1.9,1.1,2.9,1.5
	c0,1,0.1,2,0.2,3c0.1,1.7,0.4,3.3,0.8,4.9c0.2,0.8,1,1.3,1.9,1.1c0.5-0.1,1-0.6,1.1-1.1c0.4-1.6,0.6-3.3,0.8-4.9c0-0.3,0-0.6,0-0.9
	c0.4,0.1,0.7,0.3,1.1,0.4c1.5,0.6,3.1,1,4.7,1.3c0.5,0.1,1.1-0.1,1.4-0.5c0.5-0.6,0.4-1.6-0.2-2.1l0,0
	C252.323,211.5,251.023,210.6,249.623,209.8z"/>
<path fill="#F04E23" d="M301.523,462.3c-0.9-0.5-1.9-1-2.9-1.5c0-1.3-0.1-2.5-0.2-3.8c-0.2-1.6-0.4-3.3-0.8-4.9
	c-0.2-0.8-1-1.3-1.8-1.1c-0.5,0.1-0.9,0.5-1.1,1.1c-0.4,1.6-0.7,3.2-0.8,4.9c-0.1,0.6-0.1,1.1-0.1,1.7c-0.4-0.1-0.7-0.3-1.1-0.4
	c-1.5-0.6-3.1-1-4.7-1.3c-0.8-0.1-1.6,0.4-1.7,1.2c-0.1,0.5,0.1,1.1,0.5,1.4c1.3,1,2.6,1.9,4,2.7c0.9,0.5,1.9,1.1,2.9,1.5
	c0,1,0.1,2,0.2,3c0.1,1.6,0.4,3.3,0.8,4.9c0.2,0.8,1,1.3,1.9,1.1c0.5-0.1,1-0.6,1.1-1.1c0.4-1.6,0.6-3.2,0.8-4.9
	c0-0.3,0-0.6,0.1-0.9c0.4,0.1,0.7,0.3,1.1,0.4c1.5,0.6,3.1,1,4.7,1.3c0.5,0.1,1.1-0.1,1.4-0.5c0.5-0.6,0.4-1.6-0.2-2.1l0,0
	C304.223,464,302.823,463.1,301.523,462.3z"/>
<path fill="#F04E23" d="M482.423,493.8c-0.9-0.5-1.9-1-2.9-1.5c0-1.3-0.1-2.5-0.2-3.8c-0.1-1.6-0.4-3.3-0.8-4.9
	c-0.2-0.8-1-1.3-1.8-1.1c-0.5,0.1-0.9,0.5-1.1,1.1c-0.4,1.6-0.7,3.2-0.8,4.9c-0.1,0.6-0.1,1.1-0.1,1.7c-0.4-0.1-0.7-0.3-1.1-0.4
	c-1.5-0.6-3.1-1-4.7-1.3c-0.8-0.1-1.6,0.4-1.7,1.2c-0.1,0.5,0.1,1.1,0.5,1.4c1.3,1,2.6,1.9,4,2.7c0.9,0.5,1.9,1.1,2.9,1.5
	c0,1,0.1,2,0.2,3c0.1,1.6,0.4,3.3,0.8,4.9c0.1,0.5,0.6,1,1.1,1.1c0.8,0.2,1.6-0.3,1.8-1.1l0,0c0.4-1.6,0.7-3.2,0.8-4.9
	c0-0.3,0-0.6,0.1-0.9c0.4,0.1,0.7,0.3,1.1,0.4c1.5,0.6,3.1,1,4.7,1.3c0.8,0.2,1.6-0.4,1.8-1.2c0.1-0.6-0.1-1.1-0.5-1.5
	C485.123,495.5,483.823,494.6,482.423,493.8z"/>
<path fill="#00ACDC" d="M619.423,387.3c0.5-0.6,0.4-1.6-0.2-2.1l0,0c-1.3-1-2.6-1.9-4-2.7c-0.9-0.5-1.9-1-2.9-1.5
	c0-1.3-0.1-2.5-0.2-3.8c-0.1-1.6-0.4-3.3-0.8-4.9c-0.1-0.5-0.5-0.9-1.1-1.1c-0.8-0.2-1.6,0.3-1.8,1l0,0c-0.4,1.6-0.7,3.2-0.8,4.9
	c-0.1,0.6-0.1,1.1-0.1,1.7c-0.4-0.1-0.7-0.3-1.1-0.4c-1.5-0.6-3.1-1-4.7-1.3c-0.5-0.1-1,0.1-1.4,0.5c-0.5,0.6-0.4,1.5,0.2,2.1l0,0
	c1.3,1,2.6,1.9,4,2.7c0.9,0.5,1.9,1.1,2.9,1.5c0,1,0.1,2,0.2,3c0.1,1.6,0.4,3.3,0.8,4.9c0.2,0.8,1,1.3,1.8,1.1
	c0.5-0.1,1-0.6,1.1-1.1c0.4-1.6,0.7-3.2,0.8-4.9c0-0.3,0-0.6,0.1-0.9c0.4,0.1,0.7,0.3,1.1,0.4c1.5,0.6,3.1,1,4.7,1.3
	C618.523,387.9,619.023,387.8,619.423,387.3z"/>
</svg>