<?xml version="1.0" encoding="UTF-8"?><svg version="1.1" id="unsubscribed" xmlns="http://www.w3.org/2000/svg" xmlns:xlink="http://www.w3.org/1999/xlink" x="0px" y="0px" viewBox="0 0 800 836.3" enable-background="new 0 0 800 836.3" xml:space="preserve" width="800px" height="837px">
<g>
	<path fill="#10294C" d="M800,415.9c0-80.2-35.5-152.2-92-201.6c-17.6-15.4-29.7-35.9-35.5-58.5C649.4,66.3,566.9,0,468.7,0
		c-48.4-0.1-95.3,16.3-133,46.6c-21.2,17.1-48,26-75.4,25.9h-0.5C116.4,72.6,0.1,191.4,0.1,338c0,83.2,37.5,157.4,96.1,206.1
		c28.7,23.7,44.4,59.6,42.2,96.8c-0.2,2.8-0.3,5.7-0.3,8.6c0,103.2,114.8,186.8,256.4,186.8c121.2,0,222.7-61.3,249.5-143.7
		c7.7-23.6,23-44.1,43.4-58.7C755.6,584.8,800,505.5,800,415.9z"/>
	<path fill="#F04E23" d="M329.7,377.1c-7-3.8,0-13.7,5.5-10.4C340.7,370.1,338.8,382,329.7,377.1z"/>
	<path fill="#F04E23" d="M501.5,446.8c7.1-3.6,11.2,7.9,5.3,10.4C500.9,459.8,492.2,451.5,501.5,446.8z"/>
	<path fill="#F04E23" d="M344,401.7c-4.3-4.5,1.6-12.2,4.8-6.2C352,401.6,347.6,405.4,344,401.7z"/>
	<path fill="#F04E23" d="M525.8,404c4,4.4-2.3,10.1-5.1,4.5C517.9,403,522.5,400.4,525.8,404z"/>
	<path fill="#F04E23" d="M406.016,524c4,4.4-2.3,10.1-5.1,4.5C398.116,523,402.716,520.4,406.016,524z"/>
	<path fill="#F04E23" d="M453.6,321.4c-5.3,2.8-9.2-6.3-3.1-7.7S457.9,319.2,453.6,321.4z"/>
	<circle fill="#FFB400" cx="687.6" cy="550.8" r="3.8"/>
	<circle fill="#FFB400" cx="382" cy="768.867" r="3.8"/>
	<circle fill="#FFB400" cx="607.5" cy="617.3" r="3.8"/>
	<circle fill="#FFB400" cx="70.1" cy="437.2" r="3.8"/>
	<circle fill="#FFB400" cx="204.5" cy="452.9" r="3.8"/>
	<circle fill="#FFB400" cx="59.9" cy="283.7" r="3.8"/>
	<circle fill="#FFB400" cx="332.5" cy="107" r="3.8"/>
	<circle fill="#FFB400" cx="360.2" cy="76.8" r="3.8"/>
	<circle fill="#FFB400" cx="178.5" cy="591.9" r="3.8"/>
	<circle fill="#FFB400" cx="297.2" cy="602.5" r="3.8"/>
	<circle fill="#FFB400" cx="477" cy="666.271" r="3.8"/>
	<circle fill="#FFB400" cx="659.2" cy="254" r="3.8"/>
	<circle fill="#FFB400" cx="560.4" cy="76.8" r="3.8"/>
	<circle fill="#FFB400" cx="757.1" cy="393.3" r="3.8"/>
	<circle fill="#FFB400" cx="577.4" cy="575.8" r="3.8"/>
	<circle fill="#FFB400" cx="406" cy="735.6" r="6"/>
	<circle fill="#FFB400" cx="679.3" cy="235.4" r="6"/>
	<circle fill="#FFB400" cx="643.4" cy="131.7" r="6"/>
	<circle fill="#FFB400" cx="361.2" cy="159.3" r="6"/>
	<circle fill="#FFB400" cx="194.4" cy="545.9" r="6"/>
	<circle fill="#FFB400" cx="70.8" cy="466.8" r="6"/>
	<circle fill="#FFB400" cx="261.2" cy="357.1" r="6"/>
	<circle fill="#FFB400" cx="509.626" cy="189.1" r="6"/>
	<circle fill="#FFB400" cx="112.3" cy="185.3" r="3.8"/>
	<circle fill="#FFB400" cx="121.1" cy="157.7" r="6"/>
</g>
<g>
	
		<ellipse transform="matrix(0.866 -0.5 0.5 0.866 -250.961 451.2062)" fill="#10294C" cx="716.46" cy="693.891" rx="41.399" ry="35.899"/>
	<circle fill="#FFB400" cx="699" cy="703.1" r="6"/>
	<circle fill="#FFB400" cx="714.8" cy="684.4" r="3.8"/>
</g>
<g>
	
		<ellipse transform="matrix(0.866 -0.5 0.5 0.866 22.1419 383.6611)" fill="#10294C" cx="726.974" cy="150.514" rx="30.599" ry="34.299"/>
	<circle fill="#FFB400" cx="716" cy="155.6" r="3.8"/>
</g>
<g>
	
		<ellipse transform="matrix(0.9598 -0.2807 0.2807 0.9598 -170.218 42.173)" fill="#10294C" cx="62.114" cy="615.304" rx="47.9" ry="55.3"/>
	<circle fill="#10294C" cx="100.5" cy="719" r="22.6"/>
	<circle fill="#FFB400" cx="57.6" cy="616" r="3.8"/>
	<circle fill="#FFB400" cx="84.7" cy="628" r="6"/>
</g>
</svg>