<?xml version="1.0" encoding="UTF-8"?><svg version="1.1" xmlns="http://www.w3.org/2000/svg" xmlns:xlink="http://www.w3.org/1999/xlink" viewBox="0 0 1200 800" width="1200" height="800" x="0px" y="0px">
              
              <!-- ITEM 0 -->
<g>
    <defs>
        
        <clipPath id="clip-path-id-viewbox-item-0">
            <rect x="0.0" y="0.0" width="943.40516" height="612.41725"/>
        </clipPath>
    </defs>
    <g transform="translate(61.0 49.0) rotate(0.0 539.0 350.5) scale(1.1426691793799388 1.1446444397181823)">
        <g clip-path="url(#clip-path-id-viewbox-item-0)" transform="translate(-0.0 -0.0)">

  
  <ellipse cx="471.70258" cy="306.20863" rx="471.70258" ry="306.20863" style="         fill: #334a5a;       "/>

        </g>
    </g>
</g>

<!-- ITEM 1 -->
<g>
    <defs>
        
        <clipPath id="clip-path-id-viewbox-item-1">
            <rect x="0.0" y="0.0" width="117.68169" height="102.29248"/>
        </clipPath>
    </defs>
    <g transform="translate(250.0 506.0) rotate(0.0 68.0 59.5) scale(1.1556598141987933 1.163330872416037)">
        <g clip-path="url(#clip-path-id-viewbox-item-1)" transform="translate(-0.0 -0.0)">

  
  <g>
    <g>
      <path d="M45.08,69.80985a24.735,24.735,0,1,0-24.74-24.74A24.736,24.736,0,0,0,45.08,69.80985Zm31.79-31a38.058,38.058,0,0,1-61.73,29.8,38.05834,38.05834,0,0,1,54.78-51.72,37.80292,37.80292,0,0,1,6.95,21.92Z" style="         fill: #1a4d81;       "/>
      <path d="M38.81.74985a38.00643,38.00643,0,0,1,31.11,16.14,38.05849,38.05849,0,0,0-54.78,51.72A38.05712,38.05712,0,0,1,38.81.74985Z" style="         fill: #4377a5;       "/>
      <path d="M45.08,20.33985a24.735,24.735,0,1,1-24.74,24.73A24.72744,24.72744,0,0,1,45.08,20.33985Zm-13.9,34.21a19.07894,19.07894,0,0,0,23.38-23.37,19.086,19.086,0,0,0-23.38,23.37Z" style="         fill: #008211;       "/>
      <path d="M116.75,62.15985c-2.47,10.35-18.23,4.83-23.35,9.59s10.29,10.29,4.76,15.94-14.35-4.12-20.82-4.35c-6.47-.24,2.24,10.7-6.35,17.06-3.99,2.95-10.56-.27-17.23-5.35,5.82.76,10.17-1.36,10.76-4.89s-.94-13.65,3.88-14.59,12.71,2.71,15.88-.94c3.18-3.64-1.06-13.76,5.77-13.76,6.82,0,11.17-7.47,5.29-13.5C108.02,54.64985,118.43,55.13985,116.75,62.15985Z" style="         fill: #008211;       "/>
      <path d="M42.87,48.03985a5.175,5.175,0,1,0-5.18-5.17A5.17254,5.17254,0,0,0,42.87,48.03985Zm6.75,1.58a19.08984,19.08984,0,0,1-18.44,4.93,19.086,19.086,0,0,1,23.38-23.37A19.0951,19.0951,0,0,1,49.62,49.61985Z" style="         fill: #fff;       "/>
      <path d="M42.87,48.03985a5.175,5.175,0,1,1,5.18-5.17A5.17254,5.17254,0,0,1,42.87,48.03985Z"/>
      <path d="M53.76,95.04985c-7.69-5.86-15.51-14.22-19.62-18.47a38.09363,38.09363,0,0,0,41.6-47.02,60.90624,60.90624,0,0,0,19.6,17.81c5.88,6.03,1.53,13.5-5.29,13.5-6.83,0-2.59,10.12-5.77,13.76-3.17,3.65-11.06,0-15.88.94s-3.29,11.06-3.88,14.59S59.58,95.80985,53.76,95.04985Z" style="         fill: #2d9759;       "/>
    </g>
    <g>
      <path d="M45.08008,70.31006a25.23511,25.23511,0,1,1,25.23-25.24024A25.26866,25.26866,0,0,1,45.08008,70.31006Zm0-49.47022a24.23511,24.23511,0,1,0,24.23,24.23A24.26251,24.26251,0,0,0,45.08008,20.83984Z"/>
      <path d="M36.09424,55.69336a19.54361,19.54361,0,0,1-5.04321-.66065.50011.50011,0,0,1-.35425-.354A19.58591,19.58591,0,0,1,54.689,30.69678a.49972.49972,0,0,1,.35425.354,19.68362,19.68362,0,0,1-5.06933,18.92188l-.00074.001A19.67284,19.67284,0,0,1,36.09424,55.69336Zm-4.50415-1.55371A18.57864,18.57864,0,0,0,54.14966,31.58984,18.58573,18.58573,0,0,0,31.59009,54.13965Zm18.02978-4.52h0Z"/>
      <path d="M38.81006,77.61963A38.80982,38.80982,0,1,1,70.53271,16.457a38.3177,38.3177,0,0,1,5.93506,12.92139A38.85013,38.85013,0,0,1,38.81006,77.61963Zm0-76.11963a37.30889,37.30889,0,0,0-4.57935,74.33545l.00147.00049A37.34418,37.34418,0,0,0,75.01245,29.74219a36.81961,36.81961,0,0,0-5.70459-12.419A37.3902,37.3902,0,0,0,38.81006,1.5Z"/>
      <path d="M15.14014,68.85986a.24983.24983,0,0,1-.20435-.10547A37.971,37.971,0,0,1,7.95,46.69971,38.35356,38.35356,0,0,1,46.26,8.38965a37.88285,37.88285,0,0,1,23.81543,8.3042.25.25,0,0,1-.311.3916A37.38741,37.38741,0,0,0,46.26,8.88965,37.85276,37.85276,0,0,0,8.45,46.69971a37.47256,37.47256,0,0,0,6.894,21.76562.25012.25012,0,0,1-.20385.39453Z"/>
      <path d="M42.86987,48.29a5.42505,5.42505,0,1,1,5.43018-5.42041A5.43131,5.43131,0,0,1,42.86987,48.29Zm0-10.3501a4.92505,4.92505,0,1,0,4.93018,4.92969A4.93545,4.93545,0,0,0,42.86987,37.93994Z"/>
      <path d="M67.33716,102.29248c-3.5603,0-8.19946-2.2041-14.0315-6.646-6.99609-5.331-14.14746-12.76806-18.42041-17.21142l-1.28442-1.3335a.75.75,0,0,1,1.07813-1.043l1.28759,1.33692c4.24292,4.41211,11.344,11.79687,18.24805,17.05762,7.69946,5.86474,13.19336,7.6621,16.32959,5.34375,4.3335-3.2085,3.91992-7.66016,3.58765-11.23731-.20142-2.168-.37525-4.04.65918-5.13379a3.17792,3.17792,0,0,1,2.5769-.83545c2.61133.09278,5.52856,1.61231,8.34985,3.082,4.55249,2.37207,8.85279,4.61133,11.90625,1.49317,2.188-2.23584.52735-4.3291-2.46753-7.51074-1.86718-1.98389-3.63086-3.85791-3.56347-5.87793a3.65635,3.65635,0,0,1,1.29614-2.57618c2.22241-2.0664,6.03369-2.34619,10.0686-2.64209,5.75171-.42236,11.69922-.85888,13.06275-6.57324.93066-3.88867-2.20142-5.38476-9.37476-8.39892A101.82547,101.82547,0,0,1,94.96655,48.02,61.77453,61.77453,0,0,1,75.12988,29.99658a.75019.75019,0,0,1,1.22022-.873,60.29616,60.29616,0,0,0,19.36352,17.5957,99.14633,99.14633,0,0,0,11.51319,5.48437c6.68725,2.80957,11.5188,4.83985,10.25268,10.13037-1.61841,6.78125-8.415,7.28028-14.41186,7.72022-3.76465.27685-7.32056.5376-9.157,2.24512a2.19578,2.19578,0,0,0-.8186,1.52783c-.04639,1.396,1.582,3.126,3.15674,4.79931,2.58423,2.74561,5.8,6.1626,2.447,9.5879-3.83032,3.91406-9.05884,1.19091-13.67114-1.21192-2.67334-1.39209-5.4375-2.832-7.71118-2.91308a1.83106,1.83106,0,0,0-1.43286.36767c-.56763.6001-.416,2.23389-.25513,3.96387.34765,3.74316.824,8.87012-4.18921,12.58154A6.69806,6.69806,0,0,1,67.33716,102.29248Z"/>
      <path d="M56.073,95.45459a18.17727,18.17727,0,0,1-2.34546-.15674.25016.25016,0,0,1,.06494-.49609c5.58862.73242,9.898-1.1958,10.481-4.68311a27.46229,27.46229,0,0,0,.17456-3.65771c.04443-4.38721.10547-10.39551,3.90405-11.13672a21.58066,21.58066,0,0,1,6.574.27539c3.59179.49707,7.30542,1.0083,9.16528-1.13379,1.2168-1.39307,1.29834-3.87646,1.3772-6.27832.12207-3.7207.24829-7.56787,4.58154-7.56787a7.74622,7.74622,0,0,0,7.26807-4.54248c1.18237-2.8042.39624-5.91455-2.157-8.5332a.24982.24982,0,1,1,.35791-.34864c2.70044,2.76953,3.52417,6.07764,2.26,9.07617a8.24508,8.24508,0,0,1-7.729,4.84815c-3.84937,0-3.9624,3.44092-4.08179,7.084-.08179,2.48975-.16626,5.064-1.5,6.59082-2.03711,2.34571-5.88672,1.81495-9.61059,1.3003a21.32675,21.32675,0,0,0-6.40992-.2793c-3.39843.6626-3.457,6.43555-3.49975,10.65088a27.677,27.677,0,0,1-.1814,3.73437C64.22363,93.44873,60.77441,95.45459,56.073,95.45459Z"/>
    </g>
  </g>

        </g>
    </g>
</g>

<!-- ITEM 2 -->
<g>
    <defs>
        
        <clipPath id="clip-path-id-viewbox-item-2">
            <rect x="0.0" y="0.0" width="190.09897" height="107.41734"/>
        </clipPath>
    </defs>
    <g transform="translate(643.0 128.0) rotate(0.0 108.5 61.5) scale(1.141510656264997 1.1450665227792831)">
        <g clip-path="url(#clip-path-id-viewbox-item-2)" transform="translate(-0.0 -0.0)">

  
  <g>
    <g>
      <path d="M188.72051,11.96783c4.32,9.74-13.57,27.75-43.16,45.62a355.79689,355.79689,0,0,1-39.61,20.5,350.2747,350.2747,0,0,1-46.3,16.95c-30.88,8.72-54.14,9.37-58.26.09-4.09-9.21,11.68-25.8,38.42-42.69-.04,1.81.01,3.64.15,5.47-20.37,12.92-32.25,24.67-29.53,30.8,2.69,6.04,18.96,5.22,41.73-.99a359.30571,359.30571,0,0,0,49.98-18.21,371.93262,371.93262,0,0,0,43.14-22.41c22.24-13.67,35.47-26.3,32.61-32.73-2.89-6.51-21.54-5.05-47.09,2.52a53.1745,53.1745,0,0,0-4.05-3.76C159.46051,3.40783,184.43051,2.31783,188.72051,11.96783Z" style="         fill: #fcecb9;       "/>
      <path d="M177.89051,14.36783c2.86,6.43-10.37,19.06-32.61,32.73a371.93262,371.93262,0,0,1-43.14,22.41,359.30571,359.30571,0,0,1-49.98,18.21c-22.77,6.21-39.04,7.03-41.73.99-2.72-6.13,9.16-17.88,29.53-30.8.13,1.67.35,3.35.65,5.02-13.59,8.6-21.35,15.73-19.82,19.16,1.48,3.34,11.48,2.51,26.32-1.53,13.92-3.77,32.1-10.37,51.51-18.99a398.03882,398.03882,0,0,0,44.84-23.07c15.29-9.37,24.21-17.24,22.58-20.89-1.66-3.74-14-2.25-31.86,3.12q-1.605-2.01-3.38-3.84C156.35051,9.31783,175.00051,7.85783,177.89051,14.36783Z" style="         fill: #fad86e;       "/>
      <path d="M143.18051,37.59783c.1.3.19.6.28.9a398.03882,398.03882,0,0,1-44.84,23.07c-19.41,8.62-37.59,15.22-51.51,18.99a52.52538,52.52538,0,0,1-4.03-8.53c1.17-2.46,2.7-4.64,1.46-8.58a15.2358,15.2358,0,0,1,.11-8.12c.6-2.31,1.9-4.43,2.17-6.79.32-2.74-.64-5.92,1.16-7.99,1.21-1.38,3.31-1.74,4.46-3.15,1.73-2.11.64-5.45,2.04-7.78,1.69-2.79,5.86-2.66,8.33-4.81,2.13-1.84,2.67-5.15,5.02-6.72,2.57-1.71,6.16-.61,8.96-1.88,2.86-1.28,4.37-4.76,7.36-5.66,3.43-1.04,7.09,1.81,10.58.95,2.87-.69,5.06-3.78,7.99-3.48,2.97.3,4.5,3.84,7.26,4.97,1.98.82,4.33.27,6.29,1.16,2.02.92,3.08,3.11,4.6,4.72,1.66,1.78,7.6,1.69,9.8,2.75,3.36,1.63,5.09,4.21,7.74,5.29A53.19033,53.19033,0,0,1,143.18051,37.59783Z" style="         fill: #4377a5;       "/>
      <path d="M145.56051,57.58783a52.94993,52.94993,0,0,1-85.91,37.45,350.2747,350.2747,0,0,0,46.3-16.95A355.79689,355.79689,0,0,0,145.56051,57.58783Z" style="         fill: #1a4d81;       "/>
      <path d="M138.41051,26.90783c-2.65-1.08-4.38-3.66-7.74-5.29-2.2-1.06-8.14-.97-9.8-2.75-1.52-1.61-2.58-3.8-4.6-4.72-1.96-.89-4.31-.34-6.29-1.16-2.76-1.13-4.29-4.67-7.26-4.97-2.93-.3-5.12,2.79-7.99,3.48-3.49.86-7.15-1.99-10.58-.95-2.99.9-4.5,4.38-7.36,5.66-2.8,1.27-6.39.17-8.96,1.88-2.35,1.57-2.89,4.88-5.02,6.72-2.47,2.15-6.64,2.02-8.33,4.81-1.4,2.33-.31,5.67-2.04,7.78-1.15,1.41-3.25,1.77-4.46,3.15-1.8,2.07-.84,5.25-1.16,7.99-.27,2.36-1.57,4.48-2.17,6.79a15.2358,15.2358,0,0,0-.11,8.12c1.24,3.94-.29,6.12-1.46,8.58-.27-.72-.52-1.45-.76-2.19a54.01448,54.01448,0,0,1-1.71-6.91c-.3-1.67-.52-3.35-.65-5.02-.14-1.83-.19-3.66-.15-5.47a52.9827,52.9827,0,0,1,90.99-35.55q1.77,1.83,3.38,3.84A53.06855,53.06855,0,0,1,138.41051,26.90783Z" style="         fill: #5e95ce;       "/>
    </g>
    <g>
      <path d="M46.46329,80.93687A53.50461,53.50461,0,0,1,42.37613,72.285c-.27172-.72412-.52563-1.46485-.769-2.21582A55.031,55.031,0,0,1,39.872,63.05846c-.30761-1.71241-.52954-3.42627-.65918-5.09229-.14135-1.84814-.19262-3.71338-.15209-5.54492a53.73153,53.73153,0,0,1,92.27807-36.05518c1.2085,1.24854,2.36157,2.5586,3.42774,3.89356a54.00685,54.00685,0,0,1,9.12841,17.10986c.09937.29834.1919.60547.28394.91309l-1.43652.43066c-.08814-.293-.17579-.58545-.27344-.87842a52.504,52.504,0,0,0-8.87573-16.64062c-1.0354-1.29639-2.157-2.57032-3.33179-3.78467A52.71891,52.71891,0,0,0,126.269,13.703,52.21043,52.21043,0,0,0,40.56022,52.45592c-.03931,1.78076.01049,3.59619.14819,5.395.12573,1.61523.34106,3.2788.64038,4.94384a53.51825,53.51825,0,0,0,1.68652,6.81592c.23511.7251.48145,1.44434.74732,2.15332a52.018,52.018,0,0,0,3.9751,8.415Z"/>
      <path d="M92.7316,107.41734A53.669,53.669,0,0,1,59.182,95.62388a.75021.75021,0,0,1,.937-1.17187,52.19959,52.19959,0,0,0,84.69336-36.91895.75.75,0,0,1,1.4961.10938,53.72671,53.72671,0,0,1-53.57691,49.7749Z"/>
      <path d="M43.08024,72.27769a.2503.2503,0,0,1-.22559-.35742c.14185-.29785.28882-.5918.43555-.88525,1.06543-2.13086,2.072-4.14307,1.01172-7.51221a15.32619,15.32619,0,0,1,.1062-8.25537,24.00821,24.00821,0,0,1,.97656-2.794,15.65954,15.65954,0,0,0,1.1875-3.96386,18.63311,18.63311,0,0,0,.04565-2.65528c-.05859-1.95849-.11914-3.98339,1.17408-5.4707a7.74114,7.74114,0,0,1,2.273-1.59326,6.81923,6.81923,0,0,0,2.18188-1.55078,6.84159,6.84159,0,0,0,1.1106-3.93457,8.65644,8.65644,0,0,1,.90893-3.81592c1.00733-1.6626,2.85913-2.3374,4.6499-2.98975a11.664,11.664,0,0,0,3.73023-1.87988,11.05185,11.05185,0,0,0,2.22436-3.125,9.65275,9.65275,0,0,1,2.8208-3.61475,9.64822,9.64822,0,0,1,4.92212-1.17089,11.53,11.53,0,0,0,4.07349-.72852,11.44465,11.44465,0,0,0,3.33276-2.68945,9.94232,9.94232,0,0,1,4.0586-2.98242c1.82055-.55225,3.70166-.04981,5.521.43652a10.378,10.378,0,0,0,5.07129.51025,10.97486,10.97486,0,0,0,3.30982-1.69385c1.46875-.9707,2.99023-1.9746,4.76538-1.792,1.758.17725,3.03564,1.43262,4.271,2.647a10.18719,10.18719,0,0,0,3.05835,2.33984,9.44061,9.44061,0,0,0,2.99463.53027,9.4664,9.4664,0,0,1,3.30371.63379,9.39245,9.39245,0,0,1,3.33643,3.13965,20.73664,20.73664,0,0,0,1.34228,1.63672c.928.99463,3.44312,1.39551,5.66211,1.74951a16.90748,16.90748,0,0,1,4.0647.94678,20.26631,20.26631,0,0,1,4.21826,2.90967,13.93927,13.93927,0,0,0,3.50733,2.374.2499.2499,0,0,1-.18848.46289,14.2872,14.2872,0,0,1-3.63843-2.45215,19.84276,19.84276,0,0,0-4.11645-2.84424,16.73016,16.73016,0,0,0-3.92554-.90332c-2.41113-.38427-4.90405-.78174-5.94824-1.90136a21.0951,21.0951,0,0,1-1.37451-1.67481,8.89563,8.89563,0,0,0-3.14624-2.98828,8.95907,8.95907,0,0,0-3.13208-.59033,9.955,9.955,0,0,1-3.14991-.56641,10.545,10.545,0,0,1-3.2185-2.4458c-1.22779-1.20654-2.38745-2.34619-3.971-2.50635-1.59985-.16162-2.97949.74707-4.439,1.71192A11.34508,11.34508,0,0,1,94.789,11.74107a10.72328,10.72328,0,0,1-5.31861-.51318c-1.83227-.48975-3.563-.95117-5.24731-.44092A9.43536,9.43536,0,0,0,80.37955,13.638a11.81572,11.81572,0,0,1-3.48706,2.79786,11.90548,11.90548,0,0,1-4.24927.77246,9.13959,9.13959,0,0,0-4.67431,1.0874,9.14125,9.14125,0,0,0-2.6604,3.44043,11.41807,11.41807,0,0,1-2.33472,3.26074,12.03458,12.03458,0,0,1-3.88647,1.97266c-1.78833.65137-3.4773,1.2666-4.39283,2.77783a8.28923,8.28923,0,0,0-.83886,3.59912,7.31068,7.31068,0,0,1-1.22168,4.21,7.293,7.293,0,0,1-2.33325,1.67481,7.24963,7.24963,0,0,0-2.13208,1.48144c-1.16431,1.33887-1.10938,3.17871-1.051,5.127a18.96722,18.96722,0,0,1-.04883,2.72705,16.25941,16.25941,0,0,1-1.21924,4.0913,23.69412,23.69412,0,0,0-.957,2.73291,14.839,14.839,0,0,0-.11328,7.98243c1.12061,3.561.02124,5.75927-1.042,7.88525-.14526.29053-.29077.58154-.43091.87647A.25056.25056,0,0,1,43.08024,72.27769Z"/>
      <path d="M19.913,102.62681C9.54532,102.6273,2.83365,100.2274.705,95.432-3.46029,86.0526,11.009,69.743,39.40983,51.80357a.75021.75021,0,0,1,.80127,1.26856C12.90983,70.31676-1.70272,86.3148,2.07609,94.82359c3.76025,8.4707,26.28051,8.27149,57.3706-.50732A351.95265,351.95265,0,0,0,105.6464,77.40221,353.13823,353.13823,0,0,0,145.172,56.94615c30.03125-18.13623,46.85547-35.67187,42.863-44.67432-3.95337-8.89209-27.92529-8.27392-61.071,1.57471a.74982.74982,0,1,1-.42725-1.4375c34.43506-10.23242,58.5249-10.51855,62.86914-.74609,4.385,9.8872-12.26709,27.73-43.45776,46.56689A354.75307,354.75307,0,0,1,106.2548,78.7733,353.38632,353.38632,0,0,1,59.85392,95.75963C43.63712,100.33922,30.03312,102.62633,19.913,102.62681Z"/>
      <path d="M26.953,84.66734c-3.38916,0-5.86157-.666-6.61963-2.37695-2.0481-4.59082,9.751-13.29346,20.00977-19.78516a.49986.49986,0,1,1,.53466.84473C27.25431,71.97154,19.91569,78.89976,21.247,81.88414c1.28687,2.90381,10.906,2.227,25.73218-1.8086C61.41764,76.1649,79.68522,69.43,98.41764,61.1107a400.90057,400.90057,0,0,0,44.78223-23.03955c18.19482-11.15039,23.49292-17.77637,22.384-20.25928-1.13672-2.561-9.9458-3.01367-31.25928,3.395a.50019.50019,0,0,1-.28808-.958c11.11157-3.34082,30.104-8.1538,32.46093-2.84375,2.30689,5.165-13.27929,15.69971-22.77563,21.51905A401.8856,401.8856,0,0,1,98.82316,62.02476c-18.77735,8.33936-37.09644,15.09278-51.582,19.01563C40.33072,82.92174,32.44034,84.66734,26.953,84.66734Z"/>
      <path d="M22.2316,93.10631c-6.60107.00048-10.75219-1.4292-12.02929-4.29688C7.53019,82.788,18.60489,71.15709,39.82682,57.69713a.24979.24979,0,1,1,.26758.42187C19.10074,71.43492,8.09684,82.83189,10.65909,88.60631c2.52881,5.6792,18.01905,5.25634,41.43579-1.12989A358.7371,358.7371,0,0,0,102.039,69.27916a372.92815,372.92815,0,0,0,43.11059-22.394c22.73267-13.97315,35.19068-26.394,32.51245-32.41553-2.71167-6.10938-20.64038-5.08985-46.79052,2.6582a.25005.25005,0,0,1-.14209-.47949c26.80981-7.94287,44.52539-8.8335,47.38964-2.38184,2.83008,6.3628-9.397,18.71582-32.70776,33.04444a373.36824,373.36824,0,0,1-43.16943,22.42529A359.2619,359.2619,0,0,1,52.22623,87.95885C39.65738,91.38658,29.47111,93.10631,22.2316,93.10631Z"/>
    </g>
  </g>

        </g>
    </g>
</g>

<!-- ITEM 3 -->
<g>
    <defs>
        
        <clipPath id="clip-path-id-viewbox-item-3">
            <rect x="0.0" y="0.0" width="76.54984" height="56.66976"/>
        </clipPath>
    </defs>
    <g transform="translate(538.0 606.0) rotate(0.0 43.5 32.0) scale(1.1365144590765963 1.1293501154760495)">
        <g clip-path="url(#clip-path-id-viewbox-item-3)" transform="translate(-0.0 -0.0)">

  
  <g>
    <g>
      <path d="M5.89727,2.184A26.90638,26.90638,0,0,0,3.6468,4.4492c.02005.27513.37168,3.529,5.62788,5.10754,5.48622,1.65263,5.87921-4.42546,7.12727-7.83263C12.01072.32424,8.63958-.30965,5.89727,2.184Z" style="         fill: #1a4d81;       "/>
      <path d="M3.6468,4.4492A11.15235,11.15235,0,0,0,.53547,10.67669c6.02044,14.33411,26.472,15.24573,33.6554,18.21288a20.21532,20.21532,0,0,1,6.0882,4.66111,7.7043,7.7043,0,0,1,6.06349-2.91926c3.25827.34189,6.55967-3.80628,11.71933-2.924,5.17379.8816,3.7062,6.23875,3.04123,11.35277-.507,3.95979-1.82856,6.259-3.5041,7.50607.0713.01079.15606.0068.23409.01019,9.11541-.04753,15.70947-11.23167,18.19542-16.45987.29234-8.06252-2.5172-15.7027-6.868-18.79634-3.56-2.5363-10.51893-3.59565-18.4501-4.25521l.00066.01413c.779,7.06343-9.668,7.84624-13.6064-.91582-1.2787-.09544-2.55-.18416-3.80047-.28093C26.35515,5.33227,20.85708,3.128,16.40868,1.71671l-.00673.0074c-1.24806,3.40717-1.641,9.48526-7.12727,7.83263C4.01848,7.97821,3.66685,4.72433,3.6468,4.4492Z" style="         fill: #5e95ce;       "/>
      <path d="M34.19087,28.88957C27.00743,25.92242,6.55591,25.0108.53547,10.67669c-.26226,2.69528.931,5.6334,4.307,8.92166,7.20507,7.02943,18.75051,13.479,21.95712,17.83,3.19922,4.34427,14.599,18.81408,26.36069,18.74088,11.76912-.06648,17.95166-8.7182,20.96214-16.48414a29.38286,29.38286,0,0,0,1.90612-9.56856c-2.486,5.2282-9.08,16.41234-18.19542,16.45987-.078-.00339-.16279.0006-.23409-.01019-3.10346,2.34079-7.45171,1.10171-10.25233.25687A12.13343,12.13343,0,0,1,39.06344,38.096a5.10925,5.10925,0,0,1,1.21563-4.54535A20.21532,20.21532,0,0,0,34.19087,28.88957Z" style="         fill: #4377a5;       "/>
      <path d="M37.10474,6.16333c3.93844,8.76206,14.38542,7.97925,13.6064.91582L50.71048,7.065C46.33289,6.70511,41.66331,6.45808,37.10474,6.16333Z" style="         fill: #1a4d81;       "/>
      <path d="M46.34256,30.63142a7.7043,7.7043,0,0,0-6.06349,2.91926c5.27732,5.32936,10.84352,12.882,17.32,13.01557,1.67554-1.247,2.99707-3.54628,3.5041-7.50607.665-5.114,2.13256-10.47117-3.04123-11.35277C52.90223,26.82514,49.60083,30.97331,46.34256,30.63142Z" style="         fill: #4377a5;       "/>
      <path d="M40.27907,33.55068A5.10925,5.10925,0,0,0,39.06344,38.096a12.13343,12.13343,0,0,0,8.28325,8.72709c2.80062.84484,7.14887,2.08392,10.25233-.25687C51.12259,46.43272,45.55639,38.88,40.27907,33.55068Z" style="         fill: #1a4d81;       "/>
    </g>
    <g>
      <path d="M53.07019,56.66976c-11.47973,0-22.47216-13.24023-26.67309-18.94482-1.60278-2.17481-5.3689-4.90332-9.72949-8.0625A112.0081,112.0081,0,0,1,4.49329,19.95638C1.19715,16.74545-.26037,13.69418.038,10.62826A11.54807,11.54807,0,0,1,3.27185,4.118a27.58,27.58,0,0,1,2.291-2.30567c3.03687-2.76221,6.88892-1.86767,10.9043-.59228a.48188.48188,0,0,1,.09253.02c.76342.24218,1.55786.50781,2.385.78418A57.927,57.927,0,0,0,33.34388,5.38363q1.129.08789,2.27954.16943l1.5188.11182c1.33032.08594,2.67553.168,4.01977.25,3.19068.19531,6.48975.397,9.5896.65137,7.05347.58691,14.79028,1.562,18.699,4.34668,4.5332,3.22363,7.37768,10.94824,7.07763,19.22168a29.689,29.689,0,0,1-1.93945,9.731C72.16809,46.10971,66.1659,56.596,53.16321,56.66928ZM10.401.99642A5.8464,5.8464,0,0,0,6.23377,2.554,26.534,26.534,0,0,0,4.02308,4.77816a10.61014,10.61014,0,0,0-2.98951,5.94336c-.26733,2.748,1.09278,5.5332,4.15772,8.51856a111.31239,111.31239,0,0,0,12.063,9.6123c4.42822,3.2085,8.25268,5.97949,9.948,8.2793,4.11036,5.582,14.84473,18.53808,25.86744,18.53808l.0874-.00048c11.78931-.06641,17.65478-8.82715,20.499-16.165a28.69083,28.69083,0,0,0,1.87256-9.40479c.28394-7.82812-2.45386-15.38232-6.658-18.37158-3.71191-2.64453-11.28393-3.58936-18.20166-4.165-3.08887-.25391-6.38257-.45508-9.56787-.64941-1.3457-.08252-2.69189-.16455-4.02856-.251l-1.52173-.11182q-1.15137-.08349-2.2854-.16992A59.57726,59.57726,0,0,1,18.62757,2.9725c-.791-.26416-1.55176-.51856-2.28394-.752a.48783.48783,0,0,1-.0935-.02A20.221,20.221,0,0,0,10.401.99642Z"/>
      <path d="M57.83435,46.8265l-.08374-.002a1.37032,1.37032,0,0,1-.189-.01123c-5.34937-.10791-9.99976-5.1167-14.49707-9.96094-1.022-1.10059-1.98755-2.14062-2.96314-3.126-2.44653-2.48291-4.29858-3.90332-6.00585-4.60595a52.4573,52.4573,0,0,0-6.9336-1.95606C17.78748,24.91244,4.94837,21.82846.30506,10.77328A.24993.24993,0,1,1,.766,10.57992C5.31141,21.4017,18.00818,24.451,27.27893,26.67806a52.71722,52.71722,0,0,1,7.00733,1.98047c1.772.729,3.67529,2.1836,6.1709,4.7168.98071.99023,1.949,2.0332,2.97387,3.13721,4.42627,4.76758,9.00342,9.69726,14.1731,9.80371a1.21134,1.21134,0,0,0,.15259.0083l.0874.002c9.48706-.04931,16.14429-12.502,17.9585-16.31738a.25008.25008,0,0,1,.45166.21484C74.40833,34.1058,67.62513,46.77572,57.83435,46.8265Z"/>
      <path d="M53.11975,48.15853a20.60948,20.60948,0,0,1-5.84521-1.09619,12.30509,12.30509,0,0,1-8.45288-8.90283,5.37856,5.37856,0,0,1,1.26392-4.76709A7.91878,7.91878,0,0,1,46.368,30.38265c1.32714.13819,2.67553-.51318,4.23413-1.26757,2.10009-1.01807,4.48047-2.1709,7.502-1.6543,4.82666.82275,4.14868,5.43262,3.49316,9.89062-.0852.57911-.17089,1.16163-.24633,1.74122-.46875,3.66113-1.68067,6.24267-3.60132,7.67334h0A7.514,7.514,0,0,1,53.11975,48.15853ZM45.924,30.86019a7.7666,7.7666,0,0,0-5.45117,2.84864A4.89845,4.89845,0,0,0,39.30555,38.034a11.81553,11.81553,0,0,0,8.113,8.54981c2.60327.78466,6.95948,2.09912,10.02979-.21729l.00146-.001c1.8086-1.34619,2.95435-3.81445,3.40528-7.33691.07592-.583.16186-1.16846.24756-1.75.67749-4.60644,1.26245-8.58447-3.08277-9.32471-2.8645-.49121-5.16748.626-7.19971,1.61133-1.55981.75537-3.03613,1.46777-4.50366,1.31445A3.83319,3.83319,0,0,0,45.924,30.86019Z"/>
      <path d="M45.734,12.80306c-3.11181,0-6.845-2.06005-8.85717-6.5371a.25.25,0,1,1,.456-.20508c2.27661,5.06543,6.82178,6.894,9.94336,6.04345a4.29061,4.29061,0,0,0,3.18628-4.998.25.25,0,0,1,.49707-.05469,4.81207,4.81207,0,0,1-3.552,5.53516A6.35421,6.35421,0,0,1,45.734,12.80306Z"/>
      <path d="M10.9906,10.08871a6.222,6.222,0,0,1-1.78784-.29248c-5.3833-1.6167-5.77807-4.95361-5.80517-5.3291l.49829-.04492c.01025.14453.301,3.34863,5.45093,4.8955a4.0855,4.0855,0,0,0,3.23828-.11816c1.66015-.91162,2.344-3.34522,2.94726-5.49219.20874-.74267.40576-1.44385.63477-2.06933a.25411.25411,0,0,1,.40552-.10352.24691.24691,0,0,1,.05273.30664c-.21777.6001-.40918,1.28125-.61157,2.00147-.62988,2.24169-1.344,4.78222-3.188,5.79492A3.739,3.739,0,0,1,10.9906,10.08871Z"/>
    </g>
  </g>

        </g>
    </g>
</g>

<!-- ITEM 4 -->
<g>
    <defs>
        
        <clipPath id="clip-path-id-viewbox-item-4">
            <rect x="0.0" y="0.0" width="32.40647" height="26.7518"/>
        </clipPath>
    </defs>
    <g transform="translate(633.0 548.0) rotate(0.0 18.5 15.0) scale(1.1417473115708068 1.1214198670743651)">
        <g clip-path="url(#clip-path-id-viewbox-item-4)" transform="translate(-0.0 -0.0)">

  
  <g>
    <g>
      <path d="M29.85937,8.67954a6.20425,6.20425,0,0,1,1.3854,2.10107c-.38378,3.73029-2.84772,5.33691-9.62656,8.00479C14.8309,21.45662,4.474,23.84624,1.65617,21.367c-.93543-2.37684-2.1634-5.79574.21187-8.8476C4.23789,9.47864,6.37265,2.30528,11.97713.73649,17.587-.84341,27.03639,5.88837,29.85937,8.67954Z" style="         fill: #fcecb9;       "/>
      <path d="M1.65617,21.367c2.8178,2.47924,13.17473.08962,19.962-2.5816,6.77884-2.66788,9.24278-4.2745,9.62656-8.00479,1.20743,2.8439.64374,6.46559-.86081,7.72154-1.91,1.59494-16.10183,7.70953-19.36082,7.61965C7.75565,26.03526,4.13842,27.67416,1.65617,21.367Z" style="         fill: #fad86e;       "/>
    </g>
    <g>
      <path d="M7.73625,26.7518c-2.34277.00049-4.76831-.68652-6.54541-5.20166h0c-.81982-2.083-2.346-5.96045.28272-9.33789a26.10045,26.10045,0,0,0,1.95019-3.2041C5.279,5.639,7.58806,1.44614,11.84245.25522,17.82756-1.42984,27.539,5.682,30.21086,8.32407a6.665,6.665,0,0,1,1.49707,2.26855c1.2439,2.92871.77637,6.80811-1.00366,8.29346-1.94409,1.62354-16.177,7.83447-19.69483,7.73584-.55664-.01367-1.12255.02246-1.72094.062C8.78068,26.71762,8.26042,26.7518,7.73625,26.7518ZM13.82658.9979a6.30165,6.30165,0,0,0-1.71386.22021C8.26164,2.29575,6.06486,6.285,4.29948,9.49057A26.63659,26.63659,0,0,1,2.26237,12.827c-2.10205,2.70068-1.17505,5.73-.14087,8.35693h0c1.907,4.84619,4.43018,4.67774,7.10083,4.50244.595-.03955,1.21-.08105,1.814-.06445.02051.001.04224.001.06372.001,3.13037,0,17.02271-5.88428,18.96338-7.5044,1.28174-1.06982,1.876-4.42285.72119-7.14258A5.68608,5.68608,0,0,0,29.509,9.03647C26.86125,6.41879,19.175.9979,13.82658.9979Z"/>
      <path d="M5.86833,22.66977c-1.91479,0-3.47681-.32275-4.3772-1.11523a.24979.24979,0,1,1,.33008-.375c2.77832,2.44287,13.19556-.064,19.70557-2.62647,6.666-2.624,9.09887-4.19629,9.46924-7.79785a.25522.25522,0,0,1,.02612-.08838.247.247,0,0,1,.134-.1289.24961.24961,0,0,1,.32569.1372.26826.26826,0,0,1,.00708.17432c-.41138,3.82764-2.92994,5.47314-9.77906,8.16846C17.33073,20.74155,10.547,22.66977,5.86833,22.66977Z"/>
    </g>
  </g>

        </g>
    </g>
</g>

<!-- ITEM 5 -->
<g>
    <defs>
        
        <clipPath id="clip-path-id-viewbox-item-5">
            <rect x="0.0" y="0.0" width="67.56753" height="48.30961"/>
        </clipPath>
    </defs>
    <g transform="translate(531.0 107.0) rotate(0.0 39.0 28.0) scale(1.1544006418467567 1.1591896519139773)">
        <g clip-path="url(#clip-path-id-viewbox-item-5)" transform="translate(-0.0 -0.0)">

  
  <g>
    <g>
      <path d="M67.06438,23.07861c.35,8.48-27.71,20.65-35.82,22.59-8.12,1.94-31.77,6.18-30.71-7.76a18.4811,18.4811,0,0,1,.35-2.38c2.47,5.44,12.5,9.91,32.9,3.2,20.4-6.7,31.01-18.01,29.7-23.71C65.67438,18.02861,66.97438,20.92861,67.06438,23.07861Z" style="         fill: #1a4d81;       "/>
      <path d="M63.48438,15.01861c1.31,5.7-9.3,17.01-29.7,23.71-20.4,6.71-30.43,2.24-32.9-3.2,1.65-7.81,8.3-16.62,15.05-23.28,4.48,1.42,13.6.1,12.57-9.71.22-.1.42-.2.62-.28,7.99-3.34,16.07-1.51,22.71,2.34-2.48,2.6-.63,14.6,10.57,9.01Q62.97438,14.31361,63.48438,15.01861Zm-27.3,18.02c5.29-2.47,2-7.29,0-9.06-2-1.76.47-7.53-5.53-7.17-6,.35-10.54,9.51-10.12,13.53C21.35438,38.21861,30.88438,35.50861,36.18438,33.03861Z" style="         fill: #4377a5;       "/>
      <path d="M62.40438,13.60861c-11.2,5.59-13.05-6.41-10.57-9.01A39.07638,39.07638,0,0,1,62.40438,13.60861Z" style="         fill: #1a4d81;       "/>
      <path d="M36.18438,23.97861c2,1.77,5.29,6.59,0,9.06-5.3,2.47-14.83,5.18-15.65-2.7-.42-4.02,4.12-13.18,10.12-13.53C36.65438,16.44861,34.18438,22.21861,36.18438,23.97861Z" style="         fill: #1a4d81;       "/>
      <path d="M28.50438,2.53861c1.03,9.81-8.09,11.13-12.57,9.71C20.61438,7.63861,25.33438,4.04861,28.50438,2.53861Z" style="         fill: #1a4d81;       "/>
    </g>
    <g>
      <path d="M14.96109,48.30961c-4.78027.00048-9.39257-.76856-12.19238-3.15577A8.21063,8.21063,0,0,1,.0358,37.87064a18.80565,18.80565,0,0,1,.35938-2.44482C2.454,25.68021,11.70255,15.72172,15.58341,11.89261c4.62036-4.55127,9.37011-8.21679,12.70581-9.80517l.20386-.09473c.15356-.07178.3-.14014.44653-.19824,9.1499-3.82422,17.63672-.82178,23.14453,2.37109h0a39.77116,39.77116,0,0,1,10.708,9.127q.58044.7185,1.09741,1.4331c2.2749,3.127,3.58032,6.08643,3.67432,8.332.37548,9.0918-28.32569,21.21289-36.20337,23.09717A76.279,76.279,0,0,1,14.96109,48.30961ZM37.81021,1.00345a21.829,21.829,0,0,0-8.49292,1.7168c-.13671.0542-.26538.11475-.40014.17822l-.20581.09522c-3.18433,1.5166-7.94873,5.20117-12.426,9.61133C12.46915,16.37015,3.37638,26.15189,1.37369,35.63236a17.80627,17.80627,0,0,0-.34082,2.31494,7.26159,7.26159,0,0,0,2.38452,6.44531c6.29859,5.37159,22.80225,1.96192,27.7107.78955,8.69946-2.08105,35.7622-14.20019,35.43676-22.083-.08471-2.02051-1.355-4.85889-3.48486-7.78662q-.50353-.69654-1.06445-1.38965A38.73464,38.73464,0,0,0,51.58463,5.03177l-.001-.00048A27.843,27.843,0,0,0,37.81021,1.00345Z"/>
      <path d="M15.651,42.36625c-8.54931,0-13.33422-3.07813-14.99414-6.73389a.25.25,0,0,1,.45508-.207c2.5127,5.53418,12.55664,9.65527,32.59424,3.06592,20.90454-6.86573,30.73242-18.20362,29.53442-23.41651a.25.25,0,0,1,.48731-.1123c1.27173,5.53369-8.39942,16.95361-29.86572,24.00342A59.30915,59.30915,0,0,1,15.651,42.36625Z"/>
      <path d="M26.66178,35.81742a7.46379,7.46379,0,0,1-3.698-.8374,5.592,5.592,0,0,1-2.67822-4.61573h.00024c-.28027-2.68115,1.49268-7.12646,4.03613-10.1206,1.35205-1.59131,3.5459-3.523,6.31787-3.68457,4.12745-.25928,4.49,2.38232,4.77979,4.4956a4.47264,4.47264,0,0,0,.92993,2.73633c1.24609,1.10254,3.25977,3.62012,2.90576,6.06445a4.58075,4.58075,0,0,1-2.96509,3.40967C34.74015,33.98783,30.43619,35.81742,26.66178,35.81742Zm4.522-18.77539c-.16382,0-.33472.00537-.5144.01611-2.596.15137-4.6775,1.99219-5.96656,3.50928-2.75219,3.24023-4.15429,7.499-3.91992,9.74512h.00024a5.121,5.121,0,0,0,2.427,4.23242c3.832,2.17041,10.8186-.77832,12.86865-1.73291a4.11789,4.11789,0,0,0,2.68164-3.02783c.32422-2.23829-1.65161-4.65381-2.7417-5.61866a4.7678,4.7678,0,0,1-1.09448-3.043C34.63687,19.02738,34.36417,17.042,31.18375,17.042Z"/>
      <path d="M19.2399,12.97513a11.36691,11.36691,0,0,1-3.38086-.48828.24994.24994,0,1,1,.15088-.47656c2.75122.87158,6.92578.62012,9.584-1.54883,2.13378-1.74023,3.02929-4.397,2.66186-7.897a.24963.24963,0,0,1,.22241-.27442.24611.24611,0,0,1,.27466.22266c.38086,3.626-.60229,6.50879-2.84277,8.33643A10.676,10.676,0,0,1,19.2399,12.97513Z"/>
      <path d="M57.11783,15.32572a5.91449,5.91449,0,0,1-4.95215-2.43115c-1.98315-2.686-1.93847-6.97315-.5122-8.46826a.24987.24987,0,0,1,.36181.34472c-1.16308,1.21973-1.37842,5.21094.55274,7.82666,1.96289,2.65772,5.41674,2.9375,9.72485.78711a.24992.24992,0,1,1,.22314.44727A12.2302,12.2302,0,0,1,57.11783,15.32572Z"/>
    </g>
  </g>

        </g>
    </g>
</g>

<!-- ITEM 6 -->
<g>
    <defs>
        
        <clipPath id="clip-path-id-viewbox-item-6">
            <rect x="0.0" y="0.0" width="24.61102" height="24.26786"/>
        </clipPath>
    </defs>
    <g transform="translate(424.0 641.0) rotate(0.0 14.0 14.0) scale(1.1377017287377769 1.153789415300731)">
        <g clip-path="url(#clip-path-id-viewbox-item-6)" transform="translate(-0.0 -0.0)">

  
  <g>
    <g>
      <path d="M14.27875.61836c5.17.72,8.94,6.94,9.76,12.35-3.71,3.68-7.25,5.61-12.78,5.61s-8.04-3.28-10.16-9.25C3.32875,6.02836,6.62875-.44164,14.27875.61836Z" style="         fill: #fcecb9;       "/>
      <path d="M1.09875,9.32836c2.12,5.97,4.63,9.25,10.16,9.25s9.07-1.93,12.78-5.61c.82,5.42-5.76,6.95-8.35,8.59-2.59,1.65-7.42,3.55-9.89.83C3.33875,19.65836-1.14125,12.61836,1.09875,9.32836Z" style="         fill: #fad86e;       "/>
    </g>
    <g>
      <path d="M9.23734,24.26786a4.93255,4.93255,0,0,1-3.8086-1.54346C2.91946,19.94022-1.75632,12.63309.68533,9.04715c.21265-.31445.43482-.6582.66968-1.021C3.64969,4.47977,7.12064-.88156,14.34744.12333c5.47412.76171,9.3335,7.14843,10.18579,12.7705.70142,4.6377-3.49047,6.60938-6.55127,8.04883a20.13111,20.13111,0,0,0-2.02563,1.03809A13.40372,13.40372,0,0,1,9.23734,24.26786ZM12.6702,1.00467c-5.58057,0-8.49317,4.50147-10.47559,7.56446-.23926.36963-.46533.71923-.68164,1.03906l-.001.00146C-.45749,12.50223,3.64359,19.24979,6.1702,22.0535c2.25927,2.48877,6.87744.59473,9.25-.917a20.72309,20.72309,0,0,1,2.13623-1.09863c2.93066-1.37842,6.57812-3.09424,5.988-6.99463C22.73538,7.70536,19.02249,1.78348,14.21,1.11356A11.26553,11.26553,0,0,0,12.6702,1.00467ZM1.09866,9.3284h0Z"/>
      <path d="M11.25882,18.8284c-5.87207,0-8.331-3.603-10.39575-9.4165a.24954.24954,0,0,1,.15185-.31885.247.247,0,0,1,.31934.15186c1.9917,5.60791,4.34668,9.08349,9.92456,9.08349,5.05225,0,8.58618-1.55273,12.604-5.53759a.25015.25015,0,0,1,.35206.35547C20.77591,16.55692,17.25638,18.8284,11.25882,18.8284Z"/>
    </g>
  </g>

        </g>
    </g>
</g>

<!-- ITEM 7 -->
<g>
    <defs>
        
        <clipPath id="clip-path-id-viewbox-item-7">
            <rect x="0.0" y="0.0" width="27.9652" height="25.64308"/>
        </clipPath>
    </defs>
    <g transform="translate(428.0 165.0) rotate(0.0 15.0 14.0) scale(1.0727618611703118 1.0919125159692205)">
        <g clip-path="url(#clip-path-id-viewbox-item-7)" transform="translate(-0.0 -0.0)">

  
  <g>
    <g>
      <path d="M19.16275,3.03451c8.47,4.23,9.71,10.76,7.06,13.94a19.35277,19.35277,0,0,1-5.3,3.61c-16.42,4.84-18.84-3.96-18.84-12.06.45-1.6.94-3.05,1.37-4.2C5.57275-1.26549,13.44275.17451,19.16275,3.03451Z" style="         fill: #fcecb9;       "/>
      <path d="M2.08275,8.52451c0,8.1,2.42,16.9,18.84,12.06-5.56,2.88-13.7,5.62-17.47,4.16C-.88725,23.06451.33275,14.69451,2.08275,8.52451Z" style="         fill: #fad86e;       "/>
    </g>
    <g>
      <path d="M6.03625,25.64308A7.7349,7.7349,0,0,1,3.27209,25.211C-1.96692,23.18263.35852,12.77052,1.60168,8.3882,2.10876,6.585,2.63367,5.08791,2.9845,4.14943A5.93607,5.93607,0,0,1,6.49548.583c4.62818-1.80664,11.03662,1.07764,12.89087,2.0044,6.30982,3.15137,7.97876,7.0918,8.41211,9.16064a6.50168,6.50168,0,0,1-1.19165,5.54688,19.43786,19.43786,0,0,1-5.45337,3.7334h-.00073C16.42224,23.47853,10.277,25.64308,6.03625,25.64308ZM9.8739,1.00929a8.30025,8.30025,0,0,0-3.01465.50538,4.97124,4.97124,0,0,0-2.939,2.9873c-.34326.91846-.85816,2.38721-1.35645,4.15772C1.65222,11.87453-.96448,22.49855,3.63318,24.27834c3.40722,1.31787,11.16064-1.083,17.05884-4.1377h0a18.9066,18.9066,0,0,0,5.14575-3.48486,5.5141,5.5141,0,0,0,.98193-4.70313C26.14539,8.7339,23.27307,5.6465,18.93933,3.482A21.82088,21.82088,0,0,0,9.8739,1.00929Zm11.04883,19.5752h0Z"/>
      <path d="M12.74036,22.20656a10.99049,10.99049,0,0,1-6.73682-1.90625c-2.8457-2.12793-4.1709-5.86963-4.1709-11.77588a.25.25,0,0,1,.5,0c0,5.73535,1.26148,9.3501,3.97022,11.37549,3.01245,2.25195,7.90747,2.40185,14.54907.44482a.25.25,0,1,1,.1416.4795A29.72163,29.72163,0,0,1,12.74036,22.20656Z"/>
    </g>
  </g>

        </g>
    </g>
</g>

<!-- ITEM 8 -->
<g>
    <defs>
        
        <clipPath id="clip-path-id-viewbox-item-8">
            <rect x="0.0" y="0.0" width="45.87867" height="44.62728"/>
        </clipPath>
    </defs>
    <g transform="translate(892.0 225.0) rotate(0.0 26.5 26.0) scale(1.1552209338239317 1.1652065731991732)">
        <g clip-path="url(#clip-path-id-viewbox-item-8)" transform="translate(-0.0 -0.0)">

  
  <g>
    <g>
      <path d="M43.48719,23.94413c1.46,3.78,2.55,9.17,1.41,13.44h-.01c-5.42,5.91-11.99,2.91-24.58-3.44-12.59-6.36-18.47-14.71-18.77-20.73a24.29736,24.29736,0,0,1,4.65-8.68c5.3-6.02,12.24-4.57,18.62-.64-.85,4.75-4.5,10.52-.62,12.99,3.89,2.47,7.65.47,10.12,3.76C36.77719,23.94413,40.42719,26.29413,43.48719,23.94413Z" style="         fill: #4377a5;       "/>
      <path d="M44.88719,37.38413h.01a8.45083,8.45083,0,0,1-5.41,6.09c-9.41,3.41-25.77-7.65-34.16-13.53-5.37-3.76-5.65-10.68-3.79-16.73.3,6.02,6.18,14.37,18.77,20.73C32.89719,40.29413,39.46719,43.29413,44.88719,37.38413Z" style="         fill: #1a4d81;       "/>
      <path d="M41.95719,20.76413a19.39417,19.39417,0,0,1,1.53,3.18c-3.06,2.35-6.71,0-9.18-3.3-2.47-3.29-6.23-1.29-10.12-3.76-3.88-2.47-.23-8.24.62-12.99C33.01719,8.94413,40.30719,18.12413,41.95719,20.76413Z" style="         fill: #1a4d81;       "/>
    </g>
    <g>
      <path d="M35.46257,44.62728c-8.79126.001-20.64087-7.41846-30.42236-14.27344-4.78955-3.354-6.27783-9.81641-3.981-17.28662a24.8348,24.8348,0,0,1,4.7522-8.86328c4.70532-5.34375,11.36474-5.59766,19.25805-.73536,8.26392,5.083,15.5813,14.26221,17.31177,17.03028a19.867,19.867,0,0,1,1.573,3.2666c.70654,1.8291,2.89893,8.231,1.426,13.74756a8.89862,8.89862,0,0,1-5.72242,6.43115A12.26279,12.26279,0,0,1,35.46257,44.62728ZM14.72234.97249A10.54042,10.54042,0,0,0,6.56242,4.86458a23.80022,23.80022,0,0,0-4.54687,8.49561C.97649,16.73909-.75178,25.077,5.61394,29.5345c6.60693,4.63037,24.157,16.9336,33.70288,13.46924a7.94613,7.94613,0,0,0,5.0979-5.751c1.10791-4.14941.00659-9.50293-1.3938-13.12841a18.57846,18.57846,0,0,0-1.48926-3.09766C39.83611,18.3138,32.65715,9.30989,24.54534,4.32015h-.00025Q19.11089.973,14.72234.97249Z"/>
      <path d="M38.06365,40.83675c-4.35035,0-9.87061-2.63526-17.8689-6.66944C6.66863,27.33479,1.55608,18.61653,1.28752,13.2264a.24978.24978,0,0,1,.23731-.26172.24272.24272,0,0,1,.2622.2373C2.04875,18.45784,7.08562,26.98519,20.42009,33.721c12.69214,6.40136,19.02686,9.22509,24.28272,3.49414a.25.25,0,0,1,.36865.33789A9.03959,9.03959,0,0,1,38.06365,40.83675Z"/>
      <path d="M40.80412,25.14534a4.78558,4.78558,0,0,1-.65771-.0459c-1.99536-.27441-4.19653-1.84326-6.03931-4.30517-1.29419-1.72364-2.95727-1.92285-4.88281-2.15332a11.528,11.528,0,0,1-5.17114-1.5459c-2.97022-1.89111-1.77173-5.604-.6128-9.19483a32.30436,32.30436,0,0,0,1.12085-4.0498.25.25,0,0,1,.49219.08789A32.66664,32.66664,0,0,1,23.91618,8.054c-1.15136,3.5669-2.23876,6.93555.40528,8.61914a10.96272,10.96272,0,0,0,4.96216,1.4712c1.95459.23388,3.80078.45507,5.22363,2.35009,1.76343,2.35547,3.8435,3.85352,5.70727,4.10987a4.06082,4.06082,0,0,0,3.12037-.8584.25.25,0,1,1,.30468.39648A4.5731,4.5731,0,0,1,40.80412,25.14534Z"/>
    </g>
  </g>

        </g>
    </g>
</g>

<!-- ITEM 9 -->
<g>
    <defs>
        
        <clipPath id="clip-path-id-viewbox-item-9">
            <rect x="0.0" y="0.0" width="219.01929" height="219.01953"/>
        </clipPath>
    </defs>
    <g transform="translate(726.0 381.0) rotate(0.0 125.0 125.0) scale(1.1414519698242105 1.1414507190294856)">
        <g clip-path="url(#clip-path-id-viewbox-item-9)" transform="translate(-0.0 -0.0)">

  
  <g>
    <g>
      <path d="M155.08107,10.73229a108.80311,108.80311,0,0,1,6.26439,194.4178c-2.408-3.69037-3.72727-10.36993-11.25562-11.966-9.14288-1.94667-18.83933,14.66921-18.83933,22.502,0,.13839,0,.26755.00923.40594a108.94518,108.94518,0,0,1-92.62823-24.0981,108.82611,108.82611,0,0,0,117.04924-16.79117,67.44269,67.44269,0,0,0,27.74234-10.83123c5.27723-3.70882,4.5576-21.81008,2.2788-28.32358a8.84065,8.84065,0,0,0-.79343-1.67911A108.8202,108.8202,0,0,0,155.08107,10.73229Z" style="         fill: #f6b855;       "/>
      <path d="M185.70189,136.04795c2.2788,6.5135,2.99843,24.61476-2.2788,28.32358a67.44269,67.44269,0,0,1-27.74234,10.83123,108.7526,108.7526,0,0,0,29.22771-40.83392A8.84065,8.84065,0,0,1,185.70189,136.04795Z" style="         fill: #1a4d81;       "/>
      <path d="M192.97192,93.23046a108.19738,108.19738,0,0,1-8.06346,41.13838c-2.88771-4.68677-9.29972-4.21625-12.39041-7.60216-3.42281-3.74573-6.94711-9.678-16.44059-4.72367-11.23717,5.85846-9.77024,14.49392-9.44734,18.72861.32291,4.22547-8.17416,8.99528-12.0306,11.883-5.77542,4.327-5.38793,23.91358,11.7077,23.42461a72.1395,72.1395,0,0,0,9.37353-.87646A108.82611,108.82611,0,0,1,38.63151,191.99393,108.48321,108.48321,0,0,1,.74988,109.505a107.01051,107.01051,0,0,1,.69195-12.22434h.00922c8.331-.95027,18.26732-7.58371,22.08685-18.0828,2.83236-7.79591-2.39873-16.11768-9.90863-21.06278a108.85085,108.85085,0,0,1,141.4518-47.40277A108.47972,108.47972,0,0,1,192.97192,93.23046ZM168.27413,66.04168c.83033-6.84564-4.982-6.16292-8.86611-8.65392-3.87488-2.50022-3.87488-11.91066-13.01777-13.85733-9.13366-1.93744-18.8301,14.67844-18.8301,22.51125,0,13.64513,19.39288,17.3724,30.18721,18.212C168.55091,85.084,167.4438,72.89653,168.27413,66.04168ZM93.987,129.802c4.45611.76575,7.92506-7.92507,6.8364-11.17259-1.07943-3.25675-7.759-3.84721-11.6062,0C85.91435,121.9323,89.54013,129.04548,93.987,129.802ZM68.48658,178.72706c14.2356,5.185,23.44307-2.38029,23.22164-10.63749-.21219-8.248-11.93834-19.96489-19.09765-19.96489-7.16854,0-15.85013,13.2392-16.93879,17.7968C54.59235,170.47908,61.57637,176.21761,68.48658,178.72706ZM64.1135,131.09363c3.20139-1.30085,2.66629-8.89378,0-11.56007s-4.71445-4.71445-6.45815-8.40482-4.982-3.69036-9.5396-3.69036-8.903,8.89378-6.44891,14.54005c0,0,1.96512,8.414,7.99887,10.41606C53.14388,133.557,60.92133,132.39449,64.1135,131.09363Z" style="         fill: #fad86e;       "/>
      <path d="M172.518,126.76668c3.09069,3.38591,9.5027,2.91539,12.39041,7.60216a108.7526,108.7526,0,0,1-29.22771,40.83392,72.1395,72.1395,0,0,1-9.37353.87646c-17.09563.489-17.48312-19.09766-11.7077-23.42461,3.85644-2.88771,12.35351-7.65752,12.0306-11.883-.3229-4.23469-1.78983-12.87015,9.44734-18.72861C165.57094,117.08869,169.09524,123.021,172.518,126.76668Z" style="         fill: #4377a5;       "/>
      <path d="M159.408,57.38776c3.88411,2.491,9.69644,1.80828,8.86611,8.65392-.83033,6.85485.27678,19.04229-10.52677,18.212-10.79433-.83956-30.18721-4.56683-30.18721-18.212,0-7.83281,9.69644-24.44869,18.8301-22.51125C155.53314,45.4771,155.53314,54.88754,159.408,57.38776Z" style="         fill: #4377a5;       "/>
      <path d="M150.08984,193.18407c7.52835,1.59609,8.84766,8.27565,11.25562,11.966A108.18887,108.18887,0,0,1,131.25974,216.092c-.00923-.13839-.00923-.26755-.00923-.40594C131.25051,207.85328,140.947,191.2374,150.08984,193.18407Z" style="         fill: #1a4d81;       "/>
      <path d="M100.82343,118.62942c1.08866,3.24752-2.38029,11.93834-6.8364,11.17259-4.4469-.75653-8.07268-7.86971-4.7698-11.17259C93.06443,114.78221,99.744,115.37267,100.82343,118.62942Z" style="         fill: #4377a5;       "/>
      <path d="M91.70822,168.08957c.22143,8.2572-8.986,15.82245-23.22164,10.63749-6.91021-2.50945-13.89423-8.248-12.8148-12.80558,1.08866-4.5576,9.77025-17.7968,16.93879-17.7968C79.76988,148.12468,91.496,159.8416,91.70822,168.08957Z" style="         fill: #4377a5;       "/>
      <path d="M64.1135,119.53356c2.66629,2.66629,3.20139,10.25922,0,11.56007-3.19217,1.30086-10.96962,2.46332-14.44779,1.30086-6.03375-2.002-7.99887-10.41606-7.99887-10.41606-2.4541-5.64627,1.89131-14.54005,6.44891-14.54005s7.79591,0,9.5396,3.69036S61.44721,116.86727,64.1135,119.53356Z" style="         fill: #4377a5;       "/>
      <path d="M13.62927,58.13506c7.5099,4.9451,12.741,13.26687,9.90863,21.06278C19.71837,89.69693,9.78206,96.33037,1.45105,97.28064H1.44183A107.65327,107.65327,0,0,1,13.62927,58.13506Z" style="         fill: #4377a5;       "/>
    </g>
    <g>
      <path d="M109.51416,219.01953A109.52447,109.52447,0,0,1,0,109.50488,109.79715,109.79715,0,0,1,12.96851,57.78027,109.52371,109.52371,0,1,1,161.70337,205.80908h-.00024a108.90416,108.90416,0,0,1-30.29419,11.01758A110.05753,110.05753,0,0,1,109.51416,219.01953Zm0-217.51953A107.93063,107.93063,0,0,0,14.29,58.48975,108.29651,108.29651,0,0,0,1.5,109.50488,108.05536,108.05536,0,1,0,109.51416,1.5Zm51.8313,203.6499h0Z"/>
      <path d="M84.2168,202.23584a108.09066,108.09066,0,0,1-45.69019-10.01465.25015.25015,0,0,1,.21-.4541,108.57434,108.57434,0,0,0,116.77979-16.75293A108.98806,108.98806,0,0,0,184.677,134.27441,108.57041,108.57041,0,0,0,154.91821,10.92188a.24982.24982,0,1,1,.32569-.37891A109.00869,109.00869,0,0,1,84.2168,202.23584Z"/>
      <path d="M145.66626,176.33838c-9.15063,0-12.52856-5.70264-13.73438-9.15723-1.92553-5.51758-.77246-12.26123,2.51783-14.72656.74-.55371,1.65747-1.18213,2.62866-1.84717,4.03149-2.76074,9.553-6.541,9.30249-9.81689-.01856-.24317-.041-.501-.06445-.77246-.3816-4.40284-1.0918-12.59912,9.6455-18.19678,8.67994-4.52881,12.55347-.04688,15.66578,3.55469.36377.42138.72.83349,1.075,1.22216,1.32055,1.44678,3.27026,2.16895,5.33423,2.93409,2.66626.98779,5.42334,2.00976,7.08447,4.70507a9.06573,9.06573,0,0,1,.8164,1.72754c2.13282,6.09668,3.15967,24.72412-2.37085,28.61133A66.98035,66.98035,0,0,1,155.72,175.44971a72.66361,72.66361,0,0,1-9.40576.87939C146.09546,176.33545,145.87891,176.33838,145.66626,176.33838Zm16.95386-55.938a14.03887,14.03887,0,0,0-6.427,1.86426c-10.44166,5.44336-9.75,13.42334-9.37842,17.71045.02343.273.0459.53271.06469.77734.27247,3.56348-5.15649,7.28076-9.51855,10.26758-.9668.66211-1.87988,1.28711-2.61133,1.835-3.07763,2.30566-4.17358,8.92285-2.34546,14.16162,1.18872,3.40528,4.5708,9.07715,13.896,8.8125a72.017,72.017,0,0,0,9.34106-.87353h.00025A66.46194,66.46194,0,0,0,183.27905,164.167c5.073-3.56543,4.57373-21.21386,2.18677-28.03662a8.54153,8.54153,0,0,0-.77075-1.63135c-1.57007-2.54834-4.24487-3.53955-6.83179-4.498-2.1228-.78662-4.12768-1.5293-5.52978-3.06592-.35816-.3916-.71729-.80713-1.08423-1.23193C169.05981,123.16943,166.66675,120.40039,162.62012,120.40039Z"/>
      <path d="M94.54224,130.1001a3.52556,3.52556,0,0,1-.59742-.05127c-2.50781-.42676-4.92724-2.82178-5.88354-5.82373-.73608-2.31006-.37915-4.41406.97925-5.77246l.17676.17675-.17676-.17675a9.56072,9.56072,0,0,1,8.64843-2.52637,4.37441,4.37441,0,0,1,3.37183,2.62451c.76929,2.29443-.60522,6.916-2.82812,9.50928A4.993,4.993,0,0,1,94.54224,130.1001Zm1.23437-13.88721a9.08594,9.08594,0,0,0-6.38257,2.59326c-1.22143,1.22168-1.53369,3.14112-.85644,5.26709.88769,2.78662,3.197,5.09229,5.49145,5.48242,1.63013.27881,2.97925-.83593,3.824-1.82128,2.08935-2.437,3.44336-6.90772,2.7334-9.0254a3.89681,3.89681,0,0,0-3.0127-2.29638A7.85572,7.85572,0,0,0,95.77661,116.21289Z"/>
      <path d="M1.45093,97.53076a.25008.25008,0,0,1-.02808-.49853C9.38647,96.124,19.45947,89.67676,23.303,79.1123c2.89795-7.97607-2.8396-16.17773-9.81128-20.76806a.25013.25013,0,0,1,.2749-.418c7.136,4.69873,12.99732,13.12451,10.00611,21.35693C19.85986,90.03857,9.596,96.60352,1.47949,97.5293Z"/>
      <path d="M158.75073,84.543q-.4984,0-1.02246-.04053c-9.146-.71094-30.41821-3.93359-30.41821-18.46094,0-5.38525,4.5459-15.0913,10.62964-20.01953,2.90527-2.35449,5.84594-3.30176,8.50219-2.73633,5.94971,1.26709,8.13208,5.686,9.88575,9.23682,1.00341,2.03223,1.87011,3.78711,3.21582,4.65527a17.31055,17.31055,0,0,0,3.48388,1.55811c3.14551,1.1377,6.11646,2.21289,5.49512,7.33594-.126,1.04-.207,2.20263-.293,3.43359-.33935,4.86719-.72387,10.38379-4.01538,13.22608A8.0901,8.0901,0,0,1,158.75073,84.543ZM144.918,43.62744a10.84,10.84,0,0,0-6.66358,2.78272c-5.97778,4.84277-10.44433,14.35839-10.44433,19.63134,0,14.10987,20.94946,17.26221,29.95654,17.96289a7.99158,7.99158,0,0,0,6.12085-1.65136c3.134-2.70606,3.51074-8.11231,3.84326-12.88233.08618-1.2373.16773-2.40674.29517-3.45947.57349-4.728-2.0874-5.69043-5.16846-6.80518a17.664,17.664,0,0,1-3.58447-1.60791c-1.46216-.94335-2.35718-2.75585-3.39356-4.854-1.79467-3.63428-3.82885-7.75293-9.54126-8.96924A6.81608,6.81608,0,0,0,144.918,43.62744Z"/>
      <path d="M131.25952,216.3418a.25019.25019,0,0,1-.24927-.2334c-.00952-.14356-.00976-.27783-.00976-.42236,0-5.38575,4.5459-15.08936,10.62988-20.01465,2.908-2.35352,5.85034-3.29834,8.51148-2.73194,5.935,1.2583,8.116,5.66944,9.8684,9.21387a28.28289,28.28289,0,0,0,1.54468,2.85986.25014.25014,0,1,1-.41894.27344,28.77158,28.77158,0,0,1-1.574-2.91162c-1.79346-3.62695-3.82593-7.73828-9.52392-8.94629-2.50879-.53369-5.30664.376-8.093,2.63135-5.97778,4.83935-10.44458,14.35254-10.44458,19.626,0,.13281-.00025.25634.00879.38916a.25.25,0,0,1-.23267.26611Z"/>
      <path d="M53.533,133.11377a13.12223,13.12223,0,0,1-3.94653-.48193c-6.00049-1.99121-8.01831-9.99073-8.158-10.57422-1.59595-3.7002-.29859-8.47266,1.5852-11.34571,1.46851-2.23925,3.32813-3.52343,5.10205-3.52343,4.61792,0,7.95435,0,9.76563,3.83349,1.72485,3.65039,3.79126,5.7168,6.40722,8.333,1.77442,1.77441,2.71387,5.70166,2.09546,8.75635a4.04721,4.04721,0,0,1-2.17651,3.21387A33.424,33.424,0,0,1,53.533,133.11377Zm-5.41724-25.42529c-1.60229,0-3.30957,1.20215-4.68384,3.29785-1.81616,2.76953-3.07128,7.35937-1.53588,10.89258a.23485.23485,0,0,1,.01416.04248c.01928.083,2.00512,8.30175,7.83422,10.23584,3.365,1.12353,11.04493.0205,14.27491-1.29493a3.70192,3.70192,0,0,0,1.87475-2.85009c.57886-2.86035-.31738-6.66211-1.95727-8.30176-2.6521-2.65234-4.74536-4.74609-6.50757-8.47461C55.75317,107.68848,52.71484,107.68848,48.11572,107.68848Z"/>
      <path d="M77.38965,180.66309a26.42584,26.42584,0,0,1-8.98853-1.70118c-7.14819-2.5957-14.06689-8.47851-12.97241-13.09814,1.03858-4.34863,9.64331-17.98926,17.18189-17.98926,7.5664,0,19.13867,12.0874,19.34765,20.2085a11.57514,11.57514,0,0,1-5.019,9.75683A16.13227,16.13227,0,0,1,77.38965,180.66309Zm-4.779-32.28858c-6.81714,0-15.54371,12.78223-16.69556,17.605-1.03272,4.36035,5.71069,9.99024,12.657,12.5127h0c7.00879,2.55322,13.59693,2.167,18.075-1.05811a11.08125,11.08125,0,0,0,4.81128-9.33789C91.25439,160.17041,79.981,148.37451,72.6106,148.37451Z"/>
    </g>
  </g>

        </g>
    </g>
</g>

<!-- ITEM 10 -->
<g>
    <defs>
        
        <clipPath id="clip-path-id-viewbox-item-10">
            <rect x="0.0" y="0.0" width="608.20176" height="285.32031"/>
        </clipPath>
    </defs>
    <g transform="translate(157.0 218.0) rotate(0.0 347.5 163.5) scale(1.1427129050070488 1.1460803473822105)">
        <g clip-path="url(#clip-path-id-viewbox-item-10)" transform="translate(-0.0 -0.0)">

  
  <g>
    <g>
      <path d="M601.386,179.87021c13.56,15.14.94,18.83-4.23,16.12-5.18-2.71-23.94-14.48-38.06-14.48s-2.94,15.32,1.86,19.24c5.18,4.23,2.24,13.76-7.04,10.88-11.08-3.44-30.03-27.99-37.32-41.4a49.90166,49.90166,0,0,0-5.49-7.92c8.11-1.39,27.82-15.69,27.31-28.36,5.1,4.01,10.11,8.27,15.03,12.5C568.636,159.50021,593.716,171.29021,601.386,179.87021Z" style="         fill: #ffe4e9;       "/>
      <path d="M538.416,133.95021c.51,12.67-19.2,26.97-27.31,28.36a58.41385,58.41385,0,0,0-13.58-11.97c4.53-2.85,19.49-14.82,17.06-31.99C522.686,122.28021,530.646,127.82021,538.416,133.95021Z" style="         fill: #5e95ce;       "/>
      <path d="M514.586,118.35021c2.43,17.17-12.53,29.14-17.06,31.99h-.01a39.8818,39.8818,0,0,0-11.88-5.1v-.01c3.58-5.01,9.79-20.07,5.63-32.89C499.146,112.34021,506.936,114.63021,514.586,118.35021Z" style="         fill: #ffe4e9;       "/>
      <path d="M491.266,112.34021c4.16,12.82-2.05,27.88-5.63,32.89v.01a29.64649,29.64649,0,0,0-15.42.33c5.53-9.05,3.35-27-.48-30.13A74.40523,74.40523,0,0,1,491.266,112.34021Z" style="         fill: #5e95ce;       "/>
      <path d="M469.736,115.44021c3.83,3.13,6.01,21.08.48,30.13a35.04428,35.04428,0,0,0-11.24,5.81h-.01a72.47129,72.47129,0,0,0,2.85-32.35A33.79806,33.79806,0,0,1,469.736,115.44021Z" style="         fill: #ffe4e9;       "/>
      <path d="M461.816,119.03021a71.922,71.922,0,0,1-16.06,56.18c-11.69,10.17-32.15,15.98-49.97,6.3-11.54-6.27-17.41-20.4-19.49-36.09a120.11949,120.11949,0,0,1,.68-34.26c.21-1.3.48-2.55.8-3.76,5.41-20.49,25.92-28.91,46.03-26.36,18.43,2.35,27.28,11.76,32.33,18.3v.01A71.29381,71.29381,0,0,1,461.816,119.03021Z" style="         fill: #1a4d81;       "/>
      <path d="M456.136,99.34021c-5.05-6.54-13.9-15.95-32.33-18.3-20.11-2.55-40.62,5.87-46.03,26.36h-30.8a72.18908,72.18908,0,0,1,56.1-49.37A72.176,72.176,0,0,1,456.136,99.34021Z" style="         fill: #fed3d5;       "/>
      <path d="M445.756,175.21021a71.99448,71.99448,0,0,1-42.68,24.78,72.16775,72.16775,0,0,1-57.51-54.52l.21-.05h30.52c2.08,15.69,7.95,29.82,19.49,36.09C413.606,191.19021,434.066,185.38021,445.756,175.21021Z" style="         fill: #fed3d5;       "/>
      <path d="M395.096,200.95021c-1.54.1-3.1.15-4.67.15h-.03c-.6,0-1.19-.01-1.78-.02h-.16c-.59-.02-1.17-.04-1.75-.07a71.75761,71.75761,0,0,1-22.72-4.91c-.03-.01-.05-.01-.06-.02l-.06-.03a79.59137,79.59137,0,0,1-15.7-8.63c-.02-.01-.03-.03-.05-.04a71.97239,71.97239,0,0,1-29.79-58.37,71.09283,71.09283,0,0,1,.72-10.17,70.18578,70.18578,0,0,1,2.11-9.88c.61-2.12,1.32-4.21,2.12-6.24a70.75525,70.75525,0,0,1,4.94-10.17h.01a72.07152,72.07152,0,0,1,18.15-20.6l13.29-8.15a71.57634,71.57634,0,0,1,30.75-6.88,72.34393,72.34393,0,0,1,12.66,1.11,72.1058,72.1058,0,0,0,0,141.96A72.1529,72.1529,0,0,1,395.096,200.95021Z" style="         fill: #ffe4e9;       "/>
      <path d="M346.976,107.40021h30.8c-.32,1.21-.59,2.46-.8,3.76a120.11949,120.11949,0,0,0-.68,34.26h-30.52l-.21.05a72.49808,72.49808,0,0,1,1.41-38.07Zm18.59,19.11a6.53,6.53,0,1,0-6.53,6.53A6.53824,6.53824,0,0,0,365.566,126.51021Z" style="         fill: #ffe4e9;       "/>
      <circle cx="359.03597" cy="126.51021" r="6.53" style="         fill: #4377a5;       "/>
      <path d="M390.426,201.10021c1.57,0,3.13-.05,4.67-.15-10.76,7.02-38.94,12.92-54.65,12.92-5.67,0-10.99-.15-16.05-.4,20.77.69,34.58-6.66,39.53-17.39.01.01.03.01.06.02a68.84923,68.84923,0,0,0,22.72,4.91c.58.03,1.16.05,1.75.07h.16c.59.01,1.18.02,1.78.02Z" style="         fill: #f9baba;       "/>
      <path d="M299.956,171.70021c4.49-6.01,7.33-15.03,5.91-23.31,14.23,12.61,26.63,28.08,42.25,38.99.02.01.03.03.05.04a71.04756,71.04756,0,0,0,15.7,8.63l.06.03c-4.95,10.73-18.76,18.08-39.53,17.39h-.02c-7.61-.38-14.61-.99-21.28-1.68-.77-.07-1.55-.15-2.31-.24-21.2-2.56-39.41-13.5-58.35-20.58a32.93136,32.93136,0,0,1-.99-8.05c0-.84.02-1.65.08-2.43a25.29373,25.29373,0,0,1,2.97-11.29,17.06972,17.06972,0,0,1,11.45-8.19c4.81-1.13,10.42-.88,16.14.2v.01a86.8556,86.8556,0,0,1,16.29,4.95A105.29308,105.29308,0,0,1,299.956,171.70021Z" style="         fill: #ffe4e9;       "/>
      <path d="M356.686,30.45021a39.22523,39.22523,0,0,1-2.74,13.74c-1.12,3.23-2,5.78-2,9.32a10.99483,10.99483,0,0,0,7.72,10.29,71.00579,71.00579,0,0,0-13.29,8.15,24.22263,24.22263,0,0,1-8.43-18.44,39.434,39.434,0,0,1,2.77-13.89c1.1-3.19,1.97-5.71,1.97-9.17,0-5.83-4.67-15.7-22.18-15.7-22.62,0-39,18.59-39,31.12,0,5.65,2.22,10.51,4.56,15.66,2.5,5.47,5.33,11.68,5.33,19.07a24.85509,24.85509,0,0,1-.9,6.51,29.90834,29.90834,0,0,1-3.7,8.29,30.24168,30.24168,0,0,1-3.06,4.02,9.0022,9.0022,0,0,1-6.97,3.3c-3.93,0-7.14-2.56-7.14-6.49,0-2.2,1.73-4.42,3.29-5.73a16.60568,16.60568,0,0,0,3.52-5.42,12.50782,12.50782,0,0,0,.96-4.48c0-4.35-1.89-8.48-4.07-13.27-2.72-5.98-5.82-12.77-5.82-21.46,0-20.87,23.16-45.12,53-45.12C344.256.75021,356.686,15.69021,356.686,30.45021Z" style="         fill: #fed3d5;       "/>
      <path d="M319.336,141.08021a72.02218,72.02218,0,0,0,28.78,46.3c-15.62-10.91-28.02-26.38-42.25-38.99a110.1976,110.1976,0,0,0-14.78-11.25Z" style="         fill: #f9baba;       "/>
      <path d="M290.496,87.11021l37.72,5.44a70.75525,70.75525,0,0,0-4.94,10.17s-36.38-7.48-36.48-7.32A29.90834,29.90834,0,0,0,290.496,87.11021Z" style="         fill: #fed3d5;       "/>
      <path d="M323.276,102.72021c-.8,2.03-1.51,4.12-2.12,6.24l-44.39-6.24a9.0022,9.0022,0,0,0,6.97-3.3,30.24168,30.24168,0,0,0,3.06-4.02C286.896,95.24021,323.276,102.72021,323.276,102.72021Z" style="         fill: #4377a5;       "/>
      <path d="M276.766,102.72021l44.39,6.24a70.18578,70.18578,0,0,0-2.11,9.88s-124.48-13.39-125.6-13.8c17.41-6.59,68.24-22.09,68.24-22.09l14.75,2.13a16.60568,16.60568,0,0,1-3.52,5.42c-1.56,1.31-3.29,3.53-3.29,5.73C269.626,100.16021,272.836,102.72021,276.766,102.72021Z" style="         fill: #ffe4e9;       "/>
      <path d="M319.336,141.08021l-28.25-3.94-.93-.57a67.70194,67.70194,0,0,0-24.16-9.11,69.40436,69.40436,0,0,0-11.6-.95,54.76248,54.76248,0,0,0-18.34,2.97l-49.95-6.96a35.91564,35.91564,0,0,1,7.34-17.48c1.12.41,125.6,13.8,125.6,13.8a72.42431,72.42431,0,0,0,.29,22.24Z" style="         fill: #fed3d5;       "/>
      <path d="M317.916,264.08021c0,11.76-11.29,20.49-33.64,20.49-25.69,0-48.24-14.33-63.81-33.17-.63-17.42,11.63-35.46,35.47-38.62h.01a127.87323,127.87323,0,0,0,17.56,14.22c5.81-2.64,13.95-5.84,17.36-3.25,2.75,2.09-.81,7.95-3.88,12.06C303.376,246.17021,317.916,254.91021,317.916,264.08021Z" style="         fill: #ffe4e9;       "/>
      <path d="M300.786,211.55021c-17.17-1.84-32.22-4.11-49.68-4.11h-.01a46.83422,46.83422,0,0,1-6.6-10.54h-.01a36.46353,36.46353,0,0,1-2.05-5.93C261.376,198.05021,279.586,208.99021,300.786,211.55021Z" style="         fill: #f9baba;       "/>
      <path d="M288.376,166.17021c2.84-5.77,6.36-17.41,1.77-29.59l.01-.01.93.57a110.1976,110.1976,0,0,1,14.78,11.25c1.42,8.28-1.42,17.3-5.91,23.31A105.29308,105.29308,0,0,0,288.376,166.17021Z" style="         fill: #5e95ce;       "/>
      <path d="M290.146,136.58021c4.59,12.18,1.07,23.82-1.77,29.59a86.8556,86.8556,0,0,0-16.29-4.95v-.01c5.23-14.53.42-27.46-6.09-33.75a67.70194,67.70194,0,0,1,24.16,9.11Z" style="         fill: #ffe4e9;       "/>
      <path d="M265.996,127.46021c6.51,6.29,11.32,19.22,6.09,33.75-5.72-1.08-11.33-1.33-16.14-.2-.66-14.75-10.18-25.94-24.79-29.5a45.37662,45.37662,0,0,1,4.9-2.03,54.76248,54.76248,0,0,1,18.34-2.97A69.40436,69.40436,0,0,1,265.996,127.46021Z" style="         fill: #5e95ce;       "/>
      <path d="M251.106,207.44021a68.48541,68.48541,0,0,0,4.83,5.34c-23.84,3.16-36.1,21.2-35.47,38.62a106.77148,106.77148,0,0,1-15.14-24.22v-.01c2.78-19.66,23.05-33.41,39.16-30.27h.01a46.83422,46.83422,0,0,0,6.6,10.54Z" style="         fill: #5e95ce;       "/>
      <path d="M231.156,131.51021c14.61,3.56,24.13,14.75,24.79,29.5a17.06972,17.06972,0,0,0-11.45,8.19c-5.37-13.49-25.81-17.82-38.61-10.43a66.66185,66.66185,0,0,1,3.91-7.39,51.07178,51.07178,0,0,1,21.35-19.87Z" style="         fill: #ffe4e9;       "/>
      <path d="M242.436,190.97021a36.46353,36.46353,0,0,0,2.05,5.93c-16.11-3.14-36.38,10.61-39.16,30.27-1.06-2.34-2-4.69-2.83-7.03a70.18026,70.18026,0,0,1-4.34-23.1c0-.86.01-1.73.04-2.6,7.14-15.02,25.78-22.74,43.32-13.95h.01c-.06.78-.08,1.59-.08,2.43A32.93136,32.93136,0,0,0,242.436,190.97021Z" style="         fill: #ffe4e9;       "/>
      <path d="M244.496,169.20021a25.29373,25.29373,0,0,0-2.97,11.29h-.01c-17.54-8.79-36.18-1.07-43.32,13.95.06-2.67.23-5.37.51-8.06a89.06914,89.06914,0,0,1,7.18-27.61C218.686,151.38021,239.126,155.71021,244.496,169.20021Z" style="         fill: #5e95ce;       "/>
      <path d="M209.796,151.38021a66.66185,66.66185,0,0,0-3.91,7.39,89.06914,89.06914,0,0,0-7.18,27.61c-16.81,3.68-31.53,11.9-68.78,5.25-41.35-7.38-67.06-41.29-67.06-80.12a133.52233,133.52233,0,0,1,1.15-17.23,33.65081,33.65081,0,0,1,14.94,5.77,77.1161,77.1161,0,0,0-.65,9.24c0,24.7,29.26,50.76,51.85,50.76,11.53,0,20.94-3.52,20.94-8.67,0-5.16-30.35-25.63-30.35-57.63a60.33782,60.33782,0,0,1,2.15-16.59l.01-.01c10.45-10.01,26.07-10.66,36.19-5-.15,1.58-.23,3.21-.23,4.89,0,21.52,12.41,38.2,27.23,45.48-1.17,7.37-.81,15.42-.18,23.74A135.80047,135.80047,0,0,0,209.796,151.38021Z" style="         fill: #ffe4e9;       "/>
      <path d="M198.196,194.44021c-.03.87-.04,1.74-.04,2.6a70.18026,70.18026,0,0,0,4.34,23.1c-13.32,4.78-31.19,9.08-63.75,9.08-56.82,0-99.41-55.01-99.41-97.71,0-14.64,1.67-24.74,3.72-32.55a32.86663,32.86663,0,0,1,20.96-4.68,133.52233,133.52233,0,0,0-1.15,17.23c0,38.83,25.71,72.74,67.06,80.12,37.25,6.65,51.97-1.57,68.78-5.25C198.426,189.07021,198.256,191.77021,198.196,194.44021Z" style="         fill: #fed3d5;       "/>
      <path d="M231.146,131.51021a51.07178,51.07178,0,0,0-21.35,19.87,135.80047,135.80047,0,0,1-23.88-5.12c-.63-8.32-.99-16.37.18-23.74h.01l49.95,6.96a45.37662,45.37662,0,0,0-4.9,2.03Z" style="         fill: #f9baba;       "/>
      <path d="M174.066,27.70021c.21,9.35-8.86,19.69-13.09,34.53-12.53-5.88-23.81-3.13-32.32,1.08,2.72-5.37,4.94-9.86,4.32-15.68-1.04-9.93-30.58-2.59-34.38-20.94v-.01C121.456,11.63021,152.326,15.21021,174.066,27.70021Z" style="         fill: #ffe4e9;       "/>
      <path d="M170.396,18.69021a13.81494,13.81494,0,0,1,3.67,9.01c-21.74-12.49-52.61-16.07-75.47-1.02C93.926,4.04021,157.686,3.87021,170.396,18.69021Z" style="         fill: #4377a5;       "/>
      <path d="M160.976,62.23021a55.01909,55.01909,0,0,0-1.88,9.92c-10.12-5.66-25.74-5.01-36.19,5a73.40935,73.40935,0,0,1,5.75-13.84C137.166,59.10021,148.446,56.35021,160.976,62.23021Z" style="         fill: #4377a5;       "/>
      <path d="M87.446,48.10021c.57,1.6.33,4.89-.37,9.24a83.35426,83.35426,0,0,0-10.09-8.19c2.44-5.46,4.22-8.57,4.22-8.57C84.626,43.41021,86.746,46.12021,87.446,48.10021Z" style="         fill: #4377a5;       "/>
      <path d="M87.076,57.34021c-1.38,8.64-4.55,21.43-6.68,33.33a26.04847,26.04847,0,0,0-14.51-7.4,168.84484,168.84484,0,0,1,11.1-34.12A83.35426,83.35426,0,0,1,87.076,57.34021Z" style="         fill: #fed3d5;       "/>
      <path d="M80.396,90.67021c-.57,3.23-1.07,6.39-1.44,9.38a33.65081,33.65081,0,0,0-14.94-5.77c.5-3.8,1.14-7.48,1.87-11.01A26.04847,26.04847,0,0,1,80.396,90.67021Z" style="         fill: #4377a5;       "/>
      <path d="M81.206,40.58021s-1.78,3.11-4.22,8.57c-22.71-15.57-50.42-17.16-76.01-4.58,2.59-12.47,20-19.76,44.71-17.41C62.186,28.73021,74.326,34.89021,81.206,40.58021Z" style="         fill: #5e95ce;       "/>
      <path d="M76.986,49.15021a168.84484,168.84484,0,0,0-11.1,34.12,28.73177,28.73177,0,0,0-19.03,3.83c1.13-3.18,2.16-6.06,2.89-9.01,2.53-10.28-10.55-5.85-21.95-8.56-9.07-2.15-29.4-12.49-26.82-24.96C26.566,31.99021,54.276,33.58021,76.986,49.15021Z" style="         fill: #ffe4e9;       "/>
      <path d="M65.886,83.27021c-.73,3.53-1.37,7.21-1.87,11.01a32.86663,32.86663,0,0,0-20.96,4.68c1.22-4.59,2.57-8.39,3.79-11.85a.00979.00979,0,0,0,.01-.01A28.73177,28.73177,0,0,1,65.886,83.27021Z" style="         fill: #5e95ce;       "/>
    </g>
    <g>
      <path d="M390.426,201.8501a.75.75,0,0,1,0-1.5c1.55225,0,3.10694-.04981,4.62134-.14844a71.37136,71.37136,0,0,0,66.02588-81.06641,70.55341,70.55341,0,0,0-5.62061-19.47607.75.75,0,1,1,1.3667-.61816,72.76268,72.76268,0,0,1-10.488,76.65039,72.644,72.644,0,0,1-51.18824,26.00732C393.59814,201.79932,392.01049,201.8501,390.426,201.8501Z"/>
      <path d="M390.396,201.8501c-.60449,0-1.19873-.00977-1.793-.02a.75052.75052,0,0,1-.73706-.76319.73872.73872,0,0,1,.76294-.73681c.58594.01025,1.17139.02,1.76709.02a.75.75,0,0,1,0,1.5Z"/>
      <path d="M388.45654,201.83008l-.02588-.00049c-.59448-.02-1.17895-.04053-1.76318-.07031a72.48162,72.48162,0,0,1-22.95679-4.96143.75018.75018,0,0,1,.551-1.39551,70.96393,70.96393,0,0,0,22.48266,4.85889c.57568.02979,1.15137.04932,1.73706.06934a.75.75,0,0,1-.0249,1.49951Z"/>
      <path d="M363.86572,196.80029a.75049.75049,0,0,1-.27539-.05224,71.865,71.865,0,0,1-15.86548-8.72119.74994.74994,0,1,1,.88232-1.2129,70.34031,70.34031,0,0,0,15.53443,8.53858.75015.75015,0,0,1-.27588,1.44775Z"/>
      <path d="M348.11523,188.13037a.74552.74552,0,0,1-.4397-.14307,72.84157,72.84157,0,0,1-29.37182-69.25439,71.25574,71.25574,0,0,1,2.13183-9.981c.61451-2.13623,1.33545-4.2583,2.14258-6.30664a71.67857,71.67857,0,0,1,4.99146-10.27539.75008.75008,0,0,1,1.293.76074,70.17366,70.17366,0,0,0-4.88794,10.062c-.79053,2.00683-1.4961,4.08349-2.0979,6.17529a69.77589,69.77589,0,0,0-2.0879,9.77588,71.27985,71.27985,0,0,0,28.76758,67.82959.74988.74988,0,0,1-.44116,1.35693Z"/>
      <path d="M456.13647,100.09033a.75031.75031,0,0,1-.68384-.44092,71.26625,71.26625,0,0,0-65.03662-41.979,71.41684,71.41684,0,0,0-61.543,35.25928.75.75,0,1,1-1.29394-.75879A72.79416,72.79416,0,0,1,390.416,56.17041a72.77011,72.77011,0,0,1,66.40332,42.86084.74959.74959,0,0,1-.68286,1.05908Z"/>
      <path d="M403.09594,200.49023h-.02a72.60114,72.60114,0,0,1-.0874-142.95214.52.52,0,0,1,.60742.49218.49986.49986,0,0,1-.5.5,71.60838,71.60838,0,0,0,.06739,140.96778.46888.46888,0,0,1,.46631.49609A.52679.52679,0,0,1,403.09594,200.49023Z"/>
      <path d="M415.41455,187.208a41.52147,41.52147,0,0,1-19.98657-5.03858c-13.375-7.26709-18.19068-23.94189-19.87549-36.65039a120.90344,120.90344,0,0,1,.68335-34.479c.20605-1.27588.48022-2.56494.81494-3.83154,5.79785-21.95948,27.709-29.33545,46.84936-26.9126,18.37134,2.34277,27.53492,11.72949,32.82935,18.58594a.75226.75226,0,1,1-1.23706.85205c-5.56714-7.19336-14.21533-15.71-31.7815-17.94971-18.49194-2.3457-39.64355,4.72559-45.21,25.80762-.32226,1.21924-.58618,2.46-.78442,3.688a119.37449,119.37449,0,0,0-.67725,34.041c1.63916,12.36475,6.28418,28.56445,19.10474,35.53027,17.75781,9.64649,37.9104,3.54444,49.11963-6.20654a.75.75,0,0,1,.98437,1.13184A48.28291,48.28291,0,0,1,415.41455,187.208Z"/>
      <path d="M377.77588,107.90039H346.97607a.5.5,0,0,1,0-1h30.79981a.5.5,0,0,1,0,1Z"/>
      <path d="M376.2959,145.92041h-30.52a.5.5,0,0,1,0-1h30.52a.5.5,0,0,1,0,1Z"/>
      <path d="M359.03589,133.54a7.03,7.03,0,1,1,7.03-7.02979A7.03766,7.03766,0,0,1,359.03589,133.54Zm0-13.06006a6.03,6.03,0,1,0,6.03,6.03027A6.03693,6.03693,0,0,0,359.03589,120.48Z"/>
      <path d="M307.33569,177.32031a.74816.74816,0,0,1-.48975-.18213,47.42069,47.42069,0,0,0-7.2561-4.78369,104.665,104.665,0,0,0-11.49536-5.48877A85.20626,85.20626,0,0,0,271.947,161.957a.7498.7498,0,1,1,.27783-1.47363,86.66242,86.66242,0,0,1,16.43359,4.99219,106.14533,106.14533,0,0,1,11.66309,5.56982,48.814,48.814,0,0,1,7.50439,4.957.75009.75009,0,0,1-.49023,1.31787Z"/>
      <path d="M244.48657,197.65039a.75036.75036,0,0,1-.68628-.44629,37.42852,37.42852,0,0,1-2.0918-6.05176,33.83215,33.83215,0,0,1-1.01245-8.23193c0-.96728.02612-1.75781.082-2.4873a26.17231,26.17231,0,0,1,3.06714-11.60547,17.79743,17.79743,0,0,1,11.92847-8.54737c4.56225-1.07129,10.09692-1.00683,16.45141.19336a.74985.74985,0,1,1-.27832,1.47364c-6.14721-1.16065-11.47363-1.23-15.8291-.207a16.35268,16.35268,0,0,0-10.97046,7.83252,24.73073,24.73073,0,0,0-2.87256,10.959c-.054.70654-.07861,1.46045-.07861,2.38867a32.33058,32.33058,0,0,0,.96753,7.86719,35.929,35.929,0,0,0,2.0083,5.80908.74972.74972,0,0,1-.6853,1.05371Z"/>
      <path d="M251.09643,208.19043a.74878.74878,0,0,1-.58227-.27686,47.75233,47.75233,0,0,1-6.7041-10.71.75006.75006,0,0,1,1.37207-.60644,46.25947,46.25947,0,0,0,6.4956,10.37012.74984.74984,0,0,1-.5813,1.22314Z"/>
      <path d="M255.936,213.53027a.74757.74757,0,0,1-.53027-.21972,69.5143,69.5143,0,0,1-4.88281-5.39844.74992.74992,0,1,1,1.166-.94336,68.07226,68.07226,0,0,0,4.77735,5.28125.75.75,0,0,1-.53028,1.28027Z"/>
      <path d="M284.27588,285.32031c-23.35547,0-46.82373-12.189-64.38794-33.44189a108.25489,108.25489,0,0,1-15.24659-24.3916.75011.75011,0,1,1,1.36914-.61328,106.71989,106.71989,0,0,0,15.03321,24.04834c17.27856,20.90771,40.32568,32.89843,63.23218,32.89843,20.28735,0,32.89013-7.564,32.89013-19.74023,0-8.34278-13.14917-16.63819-28.37475-26.24365l-2.20581-1.39258a.74948.74948,0,0,1-.2002-1.08252c4.26172-5.70557,5.72949-9.72022,4.02686-11.01416-3.46314-2.63233-13.3479,1.85986-16.59595,3.33545a.7475.7475,0,0,1-.73755-.06641,126.33675,126.33675,0,0,1-17.66284-14.30566.74992.74992,0,0,1,1.06054-1.06055,123.857,123.857,0,0,0,17.10792,13.89111c6.41821-2.8916,14.10742-5.74316,17.73535-2.98828,2.48,1.88526,1.38574,6.07276-3.25147,12.45313l1.52344.96191c15.60107,9.84229,29.07446,18.34229,29.07446,27.51221C318.666,277.18164,305.48852,285.32031,284.27588,285.32031Z"/>
      <path d="M205.32641,227.92041a.74973.74973,0,0,1-.68359-.44043c-1.0376-2.291-1.9978-4.67578-2.85352-7.08935A70.44623,70.44623,0,0,1,197.406,197.04c0-.86865.01026-1.74707.04053-2.62549.06006-2.68359.23291-5.416.51343-8.11182A90.2984,90.2984,0,0,1,205.20312,158.46a67.693,67.693,0,0,1,3.95386-7.47217c5.60229-9.14941,12.89136-15.93017,21.66382-20.15332a.75.75,0,0,1,.65039,1.35157c-8.5083,4.0957-15.5857,10.68554-21.03565,19.58593a66.22206,66.22206,0,0,0-3.86645,7.30762,88.78935,88.78935,0,0,0-7.11694,27.37646c-.27662,2.65772-.44678,5.34913-.50635,8.001-.03.87012-.0398,1.73193-.0398,2.583a68.96766,68.96766,0,0,0,4.29712,22.8501c.84155,2.37256,1.78565,4.71826,2.80591,6.9707a.75.75,0,0,1-.68262,1.05957Z"/>
      <path d="M390.426,201.8501h-.03c-.60449,0-1.19873-.00977-1.793-.02h-.147c-.61987-.02051-1.20434-.041-1.78857-.0708a69.20946,69.20946,0,0,1-22.96167-4.96338.55349.55349,0,0,1-.16333-.064,80.19868,80.19868,0,0,1-15.80493-8.6958l.00048-.001c-.02368-.01612-.04736-.03418-.06933-.05225-9.79419-6.84424-18.43408-15.57617-26.78955-24.02-5.00367-5.05664-10.17774-10.28564-15.5105-15.01123A109.18639,109.18639,0,0,0,290.689,137.77637l-.9248-.56641A66.77084,66.77084,0,0,0,265.873,128.2002a69.086,69.086,0,0,0-11.477-.93995,54.26583,54.26583,0,0,0-18.09057,2.92676,44.98112,44.98112,0,0,0-4.82251,1.99805.74982.74982,0,1,1-.65381-1.34961,46.33355,46.33355,0,0,1,4.98071-2.064,55.75,55.75,0,0,1,18.58618-3.01123,70.63132,70.63132,0,0,1,11.7251.96045,68.26183,68.26183,0,0,1,24.42261,9.20752l.93408.57227a110.62541,110.62541,0,0,1,14.88647,11.3291c5.3689,4.75781,10.56031,10.00439,15.58106,15.07812,8.31348,8.40186,16.91016,17.08936,26.6001,23.85792l-.00049.00048c.02417.0166.04785.03467.06982.05274a78.46216,78.46216,0,0,0,15.532,8.53613c.00952.00391.04052.01856.06738.03125.02.00635.03857.0127.05224.01807a67.73343,67.73343,0,0,0,22.47535,4.85693c.57836.02979,1.15405.04932,1.73974.06934l.13452-.00049c.59888.01025,1.18433.02,1.78.02a.76311.76311,0,0,1,.76514.75A.73747.73747,0,0,1,390.426,201.8501Z"/>
      <path d="M220.46606,251.41016l-.25-.00977a36.443,36.443,0,0,1,8.61743-24.81885c6.48975-7.70361,15.85034-12.562,27.06958-14.04931a.26827.26827,0,0,1,.27149.249.23159.23159,0,0,1-.22852.249c-25.03174,3.31885-35.81421,22.21241-35.23022,38.36084Z"/>
      <path d="M205.3247,227.44287a.26.26,0,0,1-.24878-.26269v-.00977A36.53435,36.53435,0,0,1,220.34985,202.855c7.64526-5.44531,16.46-7.70459,24.18408-6.20019a.23279.23279,0,0,1,.231.248.26454.26454,0,0,1-.2688.24756c-7.64722-1.48584-16.32178.74463-23.8562,6.11182a36.02971,36.02971,0,0,0-15.06641,23.94336A.23874.23874,0,0,1,205.3247,227.44287Z"/>
      <path d="M198.18872,194.69287a.248.248,0,0,1-.20288-.39209,31.39056,31.39056,0,0,1,18.04223-16.05371,32.9093,32.9093,0,0,1,25.59986,2.01953.25014.25014,0,0,1-.22412.44727,32.40786,32.40786,0,0,0-25.21314-1.99414,30.88554,30.88554,0,0,0-17.7688,15.82812.24336.24336,0,0,1-.05127.07129A.25981.25981,0,0,1,198.18872,194.69287Z"/>
      <path d="M244.49609,169.4502a.24951.24951,0,0,1-.23218-.15772c-2.18921-5.49853-7.06885-9.80273-13.74072-12.11914-8.23193-2.85742-17.62451-2.16309-24.51221,1.813a.24983.24983,0,1,1-.25-.43262c7.01-4.04687,16.56079-4.75732,24.92627-1.85254,6.811,2.36475,11.79761,6.771,14.041,12.40674a.25.25,0,0,1-.13965.32471A.25692.25692,0,0,1,244.49609,169.4502Z"/>
      <path d="M255.946,161.02h-.25c-.64941-14.5127-10.07519-25.72754-24.59912-29.26709a.22711.22711,0,0,1-.22559-.24609.26924.26924,0,0,1,.27466-.24659h.01c14.80786,3.60108,24.37989,14.99366,25.0398,29.73877Z"/>
      <path d="M272.08593,161.46533a.24574.24574,0,0,1-.25-.24512.29958.29958,0,0,1,.0149-.09423c5.103-14.17774.64917-27.03418-6.02857-33.48584a.25.25,0,0,1,.34766-.35938c6.7915,6.562,11.32739,19.6211,6.15454,34.00488A.25269.25269,0,0,1,272.08593,161.46533Z"/>
      <path d="M288.37573,166.42041a.24685.24685,0,0,1-.11011-.02588.24979.24979,0,0,1-.114-.33447c1.70556-3.46533,6.873-15.8252,1.7605-29.3916a.25.25,0,0,1,.46777-.17676c5.18359,13.75488-.05151,26.27832-1.77954,29.78906A.25011.25011,0,0,1,288.37573,166.42041Z"/>
      <path d="M299.95581,171.9502a.24991.24991,0,0,1-.2-.39942c4.85571-6.49951,7.15747-15.57422,5.86377-23.11816a.25.25,0,1,1,.49267-.085c1.31592,7.67334-1.022,16.89843-5.95605,23.502A.24916.24916,0,0,1,299.95581,171.9502Z"/>
      <path d="M300.78686,212.30029a.75022.75022,0,0,1-.08081-.00439c-3.59692-.38526-7.10107-.78955-10.55347-1.188-13.00341-1.50049-25.2854-2.91748-39.04663-2.91748a.75443.75443,0,0,1-.75512-.75.74588.74588,0,0,1,.74511-.75c13.85743,0,26.18116,1.42187,39.22852,2.92725,3.44849.39795,6.94849.80175,10.54126,1.187a.74992.74992,0,0,1-.07886,1.4956Z"/>
      <path d="M324.37671,214.22021l-.03809-.001c-6.65527-.332-13.42993-.86719-21.31982-1.68311a.75007.75007,0,1,1,.15429-1.49218c7.863.81347,14.61231,1.34619,21.24024,1.67724a.75.75,0,0,1-.03662,1.499Z"/>
      <path d="M340.446,214.62012c-5.366,0-10.62817-.13135-16.08716-.40088a.74994.74994,0,0,1,.07422-1.49805c5.43408.26856,10.67188.39893,16.01294.39893,15.58569,0,43.67554-5.90576,54.24-12.79785a.74988.74988,0,1,1,.81983,1.25586C384.74,208.60205,356.23242,214.62012,340.446,214.62012Z"/>
      <path d="M186.09546,123.27a.74564.74564,0,0,1-.33008-.07666C168.969,114.94287,158.116,96.82666,158.116,77.04c0-1.66016.07862-3.3291.2334-4.96045a55.36328,55.36328,0,0,1,1.90528-10.05469A101.415,101.415,0,0,1,167.604,44.40576c3.12524-6.27588,5.82422-11.69629,5.71216-16.689a13.16908,13.16908,0,0,0-3.489-8.5376c-8.9004-10.37842-45.72168-13.42383-62.53834-5.17236-6.3518,3.1167-9.02929,7.32959-7.95825,12.522a.75005.75005,0,0,1-1.46924.30273c-1.20947-5.86328,1.822-10.76367,8.76685-14.17138,17.63721-8.65479,54.9165-5.44336,64.33716,5.542a14.6075,14.6075,0,0,1,3.85034,9.4834c.12036,5.36084-2.655,10.93457-5.8689,17.38867a100.25658,100.25658,0,0,0-7.24951,17.36133,53.87974,53.87974,0,0,0-1.85449,9.78466c-.15063,1.58545-.22681,3.207-.22681,4.81983,0,19.21875,10.52369,36.80664,26.81055,44.80664a.7501.7501,0,0,1-.33105,1.42334Z"/>
      <path d="M122.90649,77.90039a.74987.74987,0,0,1-.72266-.95264,72.76157,72.76157,0,0,1,5.655-13.68261l.14746-.29248c2.60254-5.13819,4.84986-9.57471,4.2439-15.2627-.38574-3.6831-5.79858-4.73633-12.06592-5.95605-8.92016-1.73584-20.02173-3.89649-22.30273-14.91162a.74991.74991,0,1,1,1.46875-.30372c2.07861,10.03711,12.19507,12.00586,21.12036,13.74268,6.8523,1.3335,12.77,2.48535,13.27124,7.271.65283,6.12793-1.8,10.97021-4.397,16.09668l-.14673.291A71.53847,71.53847,0,0,0,123.62817,77.353.75031.75031,0,0,1,122.90649,77.90039Z"/>
      <path d="M130.156,160.80029c-11.06909,0-24.12036-6.102-34.91211-16.32324-11.241-10.64648-17.688-23.47168-17.688-35.187a77.92154,77.92154,0,0,1,.65577-9.33154c.34155-2.76026.81421-5.84082,1.4458-9.41846,1.03491-5.78272,2.29492-11.68164,3.51343-17.38574,1.26318-5.91407,2.45654-11.5,3.1643-15.93213.74634-4.6377.87842-7.53906.4043-8.87061-.70484-1.99365-2.89575-4.61523-6.01148-7.19385-4.07153-3.36669-15.64331-11.39843-35.113-13.251C21.91259,25.64893,4.26733,32.40967,1.71045,44.72266-.76343,56.67871,19.49292,66.7915,27.969,68.80029a55.3089,55.3089,0,0,0,10.76416,1.105c4.98657.17627,9.29321.32813,11.1499,2.78565.99707,1.31885,1.19043,3.144.59131,5.57861-.72607,2.93262-1.75757,5.835-2.84961,8.90723l-.062.17431a.75.75,0,0,1-1.41357-.502l.062-.1748c1.07959-3.03662,2.09888-5.90479,2.80688-8.76416.48413-1.96729.37574-3.37891-.33154-4.315C47.26,71.70752,43.28393,71.56689,38.68017,71.4043a56.44126,56.44126,0,0,1-11.05761-1.14453C18.44165,68.084-2.47681,57.55713.2417,44.41846c2.7207-13.1001,21.011-20.33448,45.51538-18.00489,19.88379,1.89161,31.74878,10.13331,35.927,13.58838,3.31909,2.74659,5.67676,5.60743,6.469,7.84815.57593,1.61719.47241,4.58154-.33667,9.60937-.71386,4.46973-1.91113,10.07471-3.17871,16.0083-1.21582,5.69239-2.47314,11.57813-3.50342,17.335-.62646,3.54981-1.0957,6.60547-1.43383,9.33985A76.38819,76.38819,0,0,0,79.0559,109.29c0,24.80908,29.73047,50.01025,51.1001,50.01025,11.32154,0,20.18994-3.479,20.18994-7.91992,0-1.188-2.71142-4.165-5.85107-7.61182C135.332,133.709,119.99609,116.87207,119.99609,93.75a61.13267,61.13267,0,0,1,2.178-16.79346.75009.75009,0,0,1,1.44385.40723A59.65561,59.65561,0,0,0,121.49609,93.75c0,22.541,15.09106,39.10938,24.10767,49.0083,3.89257,4.27393,6.24218,6.853,6.24218,8.62207C151.84594,156.83887,142.72412,160.80029,130.156,160.80029Z"/>
      <path d="M138.74609,229.97021c-26.31177,0-51.72607-11.74853-71.56177-33.08154C49.27685,177.62939,38.58593,153.189,38.58593,131.51025c0-12.605,1.19-23.0083,3.74463-32.74023,1.19825-4.50879,2.53687-8.30469,3.71826-11.6543l.08985-.25488a.75.75,0,1,1,1.41455.499l-.08984.25489c-1.17188,3.32275-2.50025,7.08935-3.68262,11.53857-2.52051,9.60156-3.69483,19.88428-3.69483,32.35693,0,43.917,44.00879,96.96,98.66016,96.96,33.96289,0,51.77393-4.8291,63.49658-9.03613a.75016.75016,0,0,1,.50684,1.41211C190.91235,225.09424,172.94018,229.97021,138.74609,229.97021Z"/>
      <path d="M155.7998,194.396a147.17755,147.17755,0,0,1-25.91772-2.51954c-19.989-3.56787-36.99756-13.37255-49.18628-28.355A82.47735,82.47735,0,0,1,62.616,111.51025a134.29152,134.29152,0,0,1,1.1521-17.2622c.47266-3.59326,1.10279-7.30371,1.873-11.02881A168.88968,168.88968,0,0,1,76.75805,49.04785c2.41675-5.4082,4.21314-8.56055,4.231-8.5918a.25.25,0,0,1,.43408.248c-.01782.03125-1.803,3.16455-4.20874,8.54834A168.36492,168.36492,0,0,0,66.13061,83.32129c-.76758,3.7124-1.39575,7.41064-1.86694,10.9917A133.801,133.801,0,0,0,63.116,111.51025c0,40.63819,26.86646,72.73682,66.854,79.874,29.9292,5.34228,45.31469,1.061,58.88916-2.71778,3.34692-.93115,6.508-1.811,9.79345-2.53027a.24993.24993,0,0,1,.10694.48828c-3.27173.71631-6.42652,1.59424-9.76636,2.52393C179.96631,191.66064,170.13769,194.39551,155.7998,194.396Z"/>
      <path d="M303.09619,212.04l-.02271-.001c-.77246-.07031-1.55468-.15039-2.31689-.24072-14.8501-1.793-28.34668-7.73584-41.39893-13.4834-5.56006-2.44824-11.30932-4.98-17.00927-7.11035a.25023.25023,0,0,1,.17529-.46875c5.71313,2.13574,11.469,4.67041,17.03564,7.12158,13.0188,5.73242,26.481,11.66016,41.25659,13.44483.75708.08935,1.53492.16943,2.30249.23877a.25.25,0,0,1-.02221.499Z"/>
      <path d="M87.07592,57.59033a.25062.25062,0,0,1-.17187-.06836,83.44374,83.44374,0,0,0-10.05957-8.16552c-22.56763-15.47217-50.18042-17.13624-75.75806-4.562a.24981.24981,0,1,1-.2207-.44824c25.7439-12.65625,53.53979-10.98047,76.26172,4.59815A83.91854,83.91854,0,0,1,87.2478,57.15869a.25012.25012,0,0,1-.17188.43164Z"/>
      <path d="M174.06567,27.9502a.24976.24976,0,0,1-.12427-.03321C153.54565,16.19922,122.39917,11.333,98.77,26.86475a.26174.26174,0,0,1-.4292-.17432.25385.25385,0,0,1,.06469-.17041.22884.22884,0,0,1,.053-.04883C122.27,10.79541,153.65185,15.68408,174.19043,27.4834a.25.25,0,0,1-.12476.4668Z"/>
      <path d="M80.396,90.92041a.25015.25015,0,0,1-.1748-.07129,25.78172,25.78172,0,0,0-14.37256-7.332,28.621,28.621,0,0,0-18.83984,3.78223.26006.26006,0,0,1-.41285-.189.25.25,0,0,1,.07618-.17969.23953.23953,0,0,1,.05053-.042A29.11455,29.11455,0,0,1,65.92431,83.023,26.26749,26.26749,0,0,1,80.5708,90.4917a.25.25,0,0,1-.17481.42871Z"/>
      <path d="M78.95581,100.30029a.25135.25135,0,0,1-.14014-.043,33.50664,33.50664,0,0,0-14.83008-5.729,32.48394,32.48394,0,0,0-20.77954,4.6333.26044.26044,0,0,1-.41015-.19141.24818.24818,0,0,1,.08056-.18359.25849.25849,0,0,1,.0481-.03906,32.98587,32.98587,0,0,1,21.12158-4.71533,34.00509,34.00509,0,0,1,15.05029,5.811.25018.25018,0,0,1-.14062.457Z"/>
      <path d="M128.64819,63.5625a.24734.24734,0,0,1-.18115-.417l.01-.01026a.257.257,0,0,1,.06811-.04931c11.25537-5.56836,22.2024-5.93115,32.53711-1.08252a.25022.25022,0,0,1-.2124.45312c-10.18677-4.78027-20.98486-4.41943-32.09326,1.07276A.265.265,0,0,1,128.64819,63.5625Z"/>
      <path d="M122.89868,77.40283a.24744.24744,0,0,1-.17725-.42138l.01-.00977c10.89453-10.436,26.9292-10.38477,36.48657-5.03955a.25008.25008,0,1,1-.24414.43652c-9.40112-5.25879-25.17627-5.30615-35.895,4.9624A.26113.26113,0,0,1,122.89868,77.40283Z"/>
      <path d="M327.01562,213.76416q-1.29932,0-2.62793-.04395a.25893.25893,0,0,1-.25171-.2539.2415.2415,0,0,1,.24-.2461h.02c19.335.64112,34.02539-5.80468,39.303-17.24462a.24994.24994,0,1,1,.4541.209C359.03173,207.28662,345.25122,213.76416,327.01562,213.76416Z"/>
      <path d="M328.22607,93.30029h-.01a.71743.71743,0,0,1-.10718-.00781l-37.72-5.43994a.74989.74989,0,1,1,.21436-1.48438l37.70825,5.438a.75419.75419,0,0,1,.65967.74414A.74588.74588,0,0,1,328.22607,93.30029Z"/>
      <path d="M186.10693,123.27a.7363.7363,0,0,1-.11743-.00928.75.75,0,0,1-.62451-.85742,36.5874,36.5874,0,0,1,7.49756-17.83447.75266.75266,0,0,1,.31811-.23047c17.23364-6.52295,67.77808-21.95068,68.28662-22.10547a.72932.72932,0,0,1,.32593-.0249l14.75,2.12988a.74989.74989,0,1,1-.21436,1.48438l-14.58422-2.106c-3.157.96484-50.96656,15.5918-67.8418,21.95312a35.20339,35.20339,0,0,0-7.05591,16.96729A.75022.75022,0,0,1,186.10693,123.27Z"/>
      <path d="M209.79687,152.13037a.76359.76359,0,0,1-.08154-.00439,137.80661,137.80661,0,0,1-24.03027-5.15235.74931.74931,0,0,1-.51685-.65674c-.69971-9.23876-.93579-16.8413.187-23.91455a.75.75,0,0,1,1.48145.23536c-1.07959,6.80126-.87281,14.15576-.2107,23.0625a136.76306,136.76306,0,0,0,23.25074,4.93457.75.75,0,0,1-.07984,1.4956Z"/>
      <path d="M319.04614,119.09033l-.0271-.00146c-5.08374-.54688-124.52344-13.39795-125.65894-13.814a.25008.25008,0,0,1,.1648-.47217c1.81055.47559,124.31006,13.65577,125.54785,13.78907a.25.25,0,0,1-.02661.49853Z"/>
      <path d="M319.34594,141.33008h-.01l-28.28442-3.94238a.24994.24994,0,1,1,.06885-.49512l28.25,3.93994a.23877.23877,0,0,1,.23779.24853A.25973.25973,0,0,1,319.34594,141.33008Z"/>
      <path d="M236.05615,129.73a.28.28,0,0,1-.03467-.00244l-49.94995-6.96a.23877.23877,0,0,1-.23779-.24854.25973.25973,0,0,1,.2622-.249l49.99439,6.9624a.25.25,0,0,1-.03418.49756Z"/>
      <path d="M276.76587,103.47021c-4.57178,0-7.8899-3.04492-7.8899-7.24023,0-2.44531,1.83789-4.85986,3.55762-6.3042a15.9183,15.9183,0,0,0,3.30444-5.12012,11.93384,11.93384,0,0,0,.908-4.20556c0-4.16406-1.83886-8.20459-3.968-12.88281l-.0586-.1294c-2.74853-6.04248-5.86352-12.89062-5.86352-21.71777C266.75586,24.65771,290.2351,0,320.50586,0,344.75073,0,357.436,15.31836,357.436,30.4502a39.78846,39.78846,0,0,1-2.773,13.96142c-1.10278,3.18018-1.967,5.67236-1.967,9.09863a10.31752,10.31752,0,0,0,7.2002,9.57618.75.75,0,0,1,.16186,1.353l-13.29,8.14991a.74718.74718,0,0,1-.8855-.07422A24.92549,24.92549,0,0,1,337.196,53.51025a40.036,40.036,0,0,1,2.81128-14.13574c1.07886-3.1289,1.92871-5.59375,1.92871-8.92431,0-5.55274-4.51343-14.9502-21.43017-14.9502-22.18848,0-38.25,18.14063-38.25,30.37012,0,5.46142,2.16674,10.23,4.46045,15.27881,2.562,5.60546,5.42968,11.87988,5.42968,19.45117a25.60611,25.60611,0,0,1-.92627,6.707,30.49378,30.49378,0,0,1-3.792,8.49756,31.10351,31.10351,0,0,1-3.1355,4.11865A9.76561,9.76561,0,0,1,276.76587,103.47021ZM274.04345,67.0957c2.20142,4.83741,4.10254,9.01465,4.10254,13.5044a13.27278,13.27278,0,0,1-1.01367,4.7583,17.43918,17.43918,0,0,1-3.67676,5.6626c-1.45141,1.22412-3.07959,3.27685-3.07959,5.209,0,3.32617,2.68726,5.74023,6.3899,5.74023a8.21093,8.21093,0,0,0,6.40356-3.041,29.68205,29.68205,0,0,0,2.99438-3.93262,28.99723,28.99723,0,0,0,3.60816-8.081,24.12616,24.12616,0,0,0,.874-6.31543c0-7.24512-2.79565-13.36133-5.2622-18.75781-2.396-5.27344-4.62793-10.186-4.62793-15.97217C280.75586,33.03662,297.447,14,320.50586,14,338.60669,14,343.436,24.34033,343.436,30.4502c0,3.582-.886,6.15136-2.00757,9.40429A38.80127,38.80127,0,0,0,338.696,53.51025a23.41935,23.41935,0,0,0,7.76319,17.50928L358.00488,63.939A11.71258,11.71258,0,0,1,351.196,53.51025c0-3.6792.90088-6.27685,2.04151-9.56543A38.58943,38.58943,0,0,0,355.936,30.4502C355.936,16.064,343.76611,1.5,320.50586,1.5c-29.426,0-52.25,23.85156-52.25,44.37012,0,8.502,3.04345,15.19336,5.72876,21.09668l-.624.43994Z"/>
      <path d="M458.97656,152.13037a.75.75,0,0,1-.45288-1.34814,35.95513,35.95513,0,0,1,11.48047-5.93116,30.38594,30.38594,0,0,1,15.80639-.34033,40.54978,40.54978,0,0,1,12.103,5.19385.74989.74989,0,1,1-.79541,1.27148,39.057,39.057,0,0,0-11.655-5.00586,28.92448,28.92448,0,0,0-15.03638.31983,34.4742,34.4742,0,0,0-10.99829,5.68848A.74589.74589,0,0,1,458.97656,152.13037Z"/>
      <path d="M557.13256,212.90918a11.612,11.612,0,0,1-3.43872-.5625c-11.71972-3.63867-31.0896-29.49414-37.75683-41.7583a49.19168,49.19168,0,0,0-5.40674-7.79736,57.721,57.721,0,0,0-13.40137-11.81446.74992.74992,0,0,1,.79395-1.27246,59.247,59.247,0,0,1,13.75854,12.125,50.73488,50.73488,0,0,1,5.57325,8.04248c7.70483,14.17285,26.345,37.77051,36.88378,41.04248,3.63233,1.12744,6.60718.30078,7.95557-2.21a5.94423,5.94423,0,0,0-1.6123-7.37305c-3.15235-2.57421-10.60816-11.69824-8.72095-16.99267.84619-2.374,3.31421-3.57813,7.3352-3.57813,12.39722,0,28.07447,8.79493,35.6084,13.02149,1.15186.646,2.1001,1.17822,2.79932,1.54394,2.39746,1.25684,6.55932.95069,8.33227-1.32568,2.15894-2.77246.38013-7.61279-5.00854-13.62939-3.811-4.26319-12.31934-9.53077-21.32715-15.10791-8.905-5.51319-18.998-11.76172-26.543-18.24366-4.48559-3.85644-9.71411-8.31884-15.00488-12.47949-9.02734-7.12158-16.55591-12.05127-23.69385-15.51465-8.21289-3.99365-15.73364-5.93457-22.99267-5.93457a73.142,73.142,0,0,0-21.30152,3.06446,33.03854,33.03854,0,0,0-7.741,3.50488.74985.74985,0,1,1-.81519-1.25879,34.52265,34.52265,0,0,1,8.09717-3.67432,74.70456,74.70456,0,0,1,21.7605-3.13623c7.49145,0,15.2268,1.99072,23.64794,6.08545,7.23731,3.51123,14.853,8.49561,23.9668,15.68555,5.31348,4.17822,10.55689,8.65332,15.05445,12.52,7.45581,6.40576,17.49633,12.62158,26.35473,18.106,9.4978,5.88038,17.70044,10.959,21.65527,15.38282,7.99781,8.92968,6.61231,13.57617,5.07447,15.55127-2.24268,2.87988-7.24146,3.29052-10.21167,1.73291-.70825-.37012-1.66968-.90967-2.8374-1.56446-7.4231-4.16455-22.86939-12.82959-34.87452-12.82959-3.31909,0-5.31176.86866-5.92236,2.582-1.447,4.05957,4.60815,12.34716,8.25684,15.32666a7.44734,7.44734,0,0,1,1.9851,9.24462A6.85231,6.85231,0,0,1,557.13256,212.90918Z"/>
      <path d="M470.21582,145.82031a.25.25,0,0,1-.21314-.38037c5.59717-9.16015,3.18189-26.8584-.4248-29.80615a.24983.24983,0,1,1,.3164-.38672c4.1128,3.36084,5.91455,21.6499.53516,30.45361A.24982.24982,0,0,1,470.21582,145.82031Z"/>
      <path d="M485.63574,145.48a.24993.24993,0,0,1-.20313-.39551c3.48926-4.88281,9.74268-19.8872,5.59546-32.667a.25.25,0,0,1,.47559-.1543c4.20532,12.959-2.12891,28.165-5.66431,33.11231A.24917.24917,0,0,1,485.63574,145.48Z"/>
      <path d="M497.52588,150.59033a.25427.25427,0,0,1-.25513-.25.24833.24833,0,0,1,.157-.23388c1.20313-.76514,19.58789-12.80469,16.91065-31.7212a.25.25,0,0,1,.49511-.07031c2.75342,19.45557-16.35962,31.72412-17.17456,32.23682A.247.247,0,0,1,497.52588,150.59033Z"/>
      <path d="M511.10571,162.56006a.2501.2501,0,0,1-.042-.49658c7.68115-1.31592,27.61426-15.38721,27.10254-28.103a.25.25,0,1,1,.49951-.02051c.52148,12.95606-19.718,27.28027-27.51758,28.6167A.25334.25334,0,0,1,511.10571,162.56006Z"/>
    </g>
    <path d="M453.26514,113.951c.10149,1.492-.08615,3.25019-1.35575,4.04043a3.20764,3.20764,0,0,1-3.58149-.49985,11.43375,11.43375,0,0,1-2.31089-3.0656A35.16908,35.16908,0,0,0,434.812,103.11721c-1.39319-.87481-2.91768-1.7204-3.71815-3.15759a4.45274,4.45274,0,0,1,1.04113-5.43821c3.05967-2.49608,8.52978.75036,11.215,2.56085a23.04716,23.04716,0,0,1,8.15845,9.80545A21.26131,21.26131,0,0,1,453.26514,113.951Z" style="         fill: #fff;       "/>
    <path d="M449.79172,125.70755a2.89192,2.89192,0,0,1,2.26227-1.67127,3.02487,3.02487,0,0,1,2.47073,1.92664,7.83051,7.83051,0,0,1,.81441,4.01188,4.9958,4.9958,0,0,1-.96225,2.79468,2.93057,2.93057,0,0,1-2.6241,1.15368C448.59638,133.45957,448.65188,127.736,449.79172,125.70755Z" style="         fill: #fff;       "/>
  </g>

        </g>
    </g>
</g>

<!-- ITEM 11 -->
<g>
    <defs>
        
        <clipPath id="clip-path-id-viewbox-item-11">
            <rect x="0.0" y="0.0" width="117.81014" height="131.52979"/>
        </clipPath>
    </defs>
    <g transform="translate(801.0 323.0) rotate(0.0 68.5 76.5) scale(1.1628880162607396 1.16323457978607)">
        <g clip-path="url(#clip-path-id-viewbox-item-11)" transform="translate(-0.0 -0.0)">

  
  <g>
    <g>
      <path d="M117.06025,21.0494l-5.54,24.5a42.78487,42.78487,0,0,1-28.3,3.01c-16.41-3.7-20.7-14.08-32.75-16.8a40.18036,40.18036,0,0,0-27.49,3.19l7.55-33.45Z" style="         fill: #2d9759;       "/>
      <path d="M111.52025,45.5494l-7.53,33.34-86.52-19.55,5.51-24.39a40.18036,40.18036,0,0,1,27.49-3.19c12.05,2.72,16.34,13.1,32.75,16.8A42.78487,42.78487,0,0,0,111.52025,45.5494Z" style="         fill: #008211;       "/>
    </g>
    <g>
      <path d="M1.50181,131.52979a1.51964,1.51964,0,0,1-.332-.03711,1.50038,1.50038,0,0,1-1.13257-1.79394L29.06724,1.169a1.5,1.5,0,1,1,2.92627.66113l-29.03,128.52979A1.50066,1.50066,0,0,1,1.50181,131.52979Z"/>
      <path d="M103.99033,79.63917a.72987.72987,0,0,1-.16528-.01856l-86.52-19.5498a.74965.74965,0,0,1-.56616-.89649L29.79868,1.33448A.75115.75115,0,0,1,30.13.86524a.74158.74158,0,0,1,.56568-.09717l86.52978,19.54981a.74949.74949,0,0,1,.56616.897l-5.53979,24.5.00024-.00049-7.53,33.33985a.74987.74987,0,0,1-.73169.585ZM18.367,58.773l85.05689,19.21923,7.36474-32.60791.00025-.00048,5.37427-23.76807L31.09678,2.39649Z"/>
      <path d="M93.03111,49.90821a44.59205,44.59205,0,0,1-9.866-1.105c-8.88941-2.0044-14.34961-6.03613-19.16675-9.59375-4.15234-3.06641-8.07446-5.96289-13.583-7.20654a39.86426,39.86426,0,0,0-27.32129,3.16894.25.25,0,1,1-.22753-.44531,40.34472,40.34472,0,0,1,27.65869-3.21094c5.61132,1.2666,9.57446,4.19287,13.77,7.29151,5.01123,3.70068,10.19287,7.52734,18.98,9.50878a42.9033,42.9033,0,0,0,28.12329-2.98486.25.25,0,0,1,.24365.43652A41.786,41.786,0,0,1,93.03111,49.90821Z"/>
    </g>
  </g>

        </g>
    </g>
</g>

              </svg>